<mxfile host="app.diagrams.net" modified="2024-03-10T15:08:45.808Z" agent="Mozilla/5.0 (Windows NT 10.0; Win64; x64) AppleWebKit/537.36 (KHTML, like Gecko) Chrome/122.0.0.0 Safari/537.36" etag="waFm5g36KDppmEAdp3A5" version="24.0.4" type="device">
  <diagram name="第 1 页" id="y9vxnGCoIsVN5d8NNHmZ">
    <mxGraphModel dx="4480" dy="3067" grid="1" gridSize="10" guides="1" tooltips="1" connect="1" arrows="1" fold="1" page="1" pageScale="1" pageWidth="827" pageHeight="1169" math="0" shadow="0">
      <root>
        <mxCell id="0" />
        <mxCell id="1" parent="0" />
        <mxCell id="CXB07NSwBX4VoINEI6L7-228" value="广告管理模块" style="shape=rect;html=1;verticalAlign=top;fontStyle=1;whiteSpace=wrap;align=center;" parent="1" vertex="1">
          <mxGeometry x="140" y="3070" width="660" height="290" as="geometry" />
        </mxCell>
        <mxCell id="CXB07NSwBX4VoINEI6L7-225" value="用户管理模块" style="shape=rect;html=1;verticalAlign=top;fontStyle=1;whiteSpace=wrap;align=center;" parent="1" vertex="1">
          <mxGeometry x="141.54" y="2380" width="648.46" height="250" as="geometry" />
        </mxCell>
        <mxCell id="CXB07NSwBX4VoINEI6L7-223" value="任务管理模块" style="shape=rect;html=1;verticalAlign=top;fontStyle=1;whiteSpace=wrap;align=center;" parent="1" vertex="1">
          <mxGeometry x="141.54" y="2690" width="698.46" height="340" as="geometry" />
        </mxCell>
        <mxCell id="CXB07NSwBX4VoINEI6L7-222" value="论坛管理模块" style="shape=rect;html=1;verticalAlign=top;fontStyle=1;whiteSpace=wrap;align=center;" parent="1" vertex="1">
          <mxGeometry x="140" y="2010" width="650" height="320" as="geometry" />
        </mxCell>
        <mxCell id="CXB07NSwBX4VoINEI6L7-221" value="可视化展示模块" style="shape=rect;html=1;verticalAlign=top;fontStyle=1;whiteSpace=wrap;align=center;" parent="1" vertex="1">
          <mxGeometry x="140" y="1800" width="495.36" height="165" as="geometry" />
        </mxCell>
        <mxCell id="CXB07NSwBX4VoINEI6L7-220" value="广告模块" style="shape=rect;html=1;verticalAlign=top;fontStyle=1;whiteSpace=wrap;align=center;" parent="1" vertex="1">
          <mxGeometry x="1150" y="-265" width="460" height="255" as="geometry" />
        </mxCell>
        <mxCell id="CXB07NSwBX4VoINEI6L7-219" value="任务模块" style="shape=rect;html=1;verticalAlign=top;fontStyle=1;whiteSpace=wrap;align=center;movable=1;resizable=1;rotatable=1;deletable=1;editable=1;locked=0;connectable=1;" parent="1" vertex="1">
          <mxGeometry x="131.54" y="1169" width="1328.46" height="451" as="geometry" />
        </mxCell>
        <mxCell id="CXB07NSwBX4VoINEI6L7-218" value="消息模块" style="shape=rect;html=1;verticalAlign=top;fontStyle=1;whiteSpace=wrap;align=center;" parent="1" vertex="1">
          <mxGeometry x="131.54" y="945" width="728.46" height="180" as="geometry" />
        </mxCell>
        <mxCell id="CXB07NSwBX4VoINEI6L7-216" value="个人管理模块" style="shape=rect;html=1;verticalAlign=top;fontStyle=1;whiteSpace=wrap;align=center;" parent="1" vertex="1">
          <mxGeometry x="131.54" y="530" width="918.46" height="400" as="geometry" />
        </mxCell>
        <mxCell id="CXB07NSwBX4VoINEI6L7-213" value="论坛模块" style="shape=rect;html=1;verticalAlign=top;fontStyle=1;whiteSpace=wrap;align=center;" parent="1" vertex="1">
          <mxGeometry x="131.54" y="30" width="1118.46" height="470" as="geometry" />
        </mxCell>
        <mxCell id="CXB07NSwBX4VoINEI6L7-212" value="登录模块" style="shape=rect;html=1;verticalAlign=top;fontStyle=1;whiteSpace=wrap;align=center;" parent="1" vertex="1">
          <mxGeometry x="131.54" y="-410" width="508.46" height="400" as="geometry" />
        </mxCell>
        <mxCell id="j4GF3NeZpC48HNPRZgc2-1" value="用户" style="shape=umlActor;html=1;verticalLabelPosition=bottom;verticalAlign=top;align=center;" parent="1" vertex="1">
          <mxGeometry x="-80" y="799" width="30" height="60" as="geometry" />
        </mxCell>
        <mxCell id="j4GF3NeZpC48HNPRZgc2-2" value="身份认证" style="ellipse;whiteSpace=wrap;html=1;fillColor=#FF9999;" parent="1" vertex="1">
          <mxGeometry x="422.26" y="-100" width="87" height="30" as="geometry" />
        </mxCell>
        <mxCell id="j4GF3NeZpC48HNPRZgc2-4" value="登录到系统" style="ellipse;whiteSpace=wrap;html=1;fillColor=#FFFFFF;" parent="1" vertex="1">
          <mxGeometry x="173.23000000000002" y="-150" width="87" height="30" as="geometry" />
        </mxCell>
        <mxCell id="j4GF3NeZpC48HNPRZgc2-6" value="查看地图" style="ellipse;whiteSpace=wrap;html=1;fillColor=#97D077;" parent="1" vertex="1">
          <mxGeometry x="414" y="1395.48" width="87" height="30" as="geometry" />
        </mxCell>
        <mxCell id="j4GF3NeZpC48HNPRZgc2-7" value="探索模块" style="ellipse;whiteSpace=wrap;html=1;" parent="1" vertex="1">
          <mxGeometry x="170" y="1460.48" width="87" height="30" as="geometry" />
        </mxCell>
        <mxCell id="j4GF3NeZpC48HNPRZgc2-12" value="&amp;lt;&amp;lt;include&amp;gt;&amp;gt;" style="html=1;endArrow=open;verticalAlign=bottom;dashed=1;labelBackgroundColor=none;rounded=0;exitX=1;exitY=0.5;exitDx=0;exitDy=0;entryX=0.012;entryY=0.665;entryDx=0;entryDy=0;entryPerimeter=0;" parent="1" source="j4GF3NeZpC48HNPRZgc2-7" target="j4GF3NeZpC48HNPRZgc2-6" edge="1">
          <mxGeometry width="160" relative="1" as="geometry">
            <mxPoint x="268" y="1315.48" as="sourcePoint" />
            <mxPoint x="428" y="1315.48" as="targetPoint" />
          </mxGeometry>
        </mxCell>
        <mxCell id="j4GF3NeZpC48HNPRZgc2-13" value="查看排行" style="ellipse;whiteSpace=wrap;html=1;" parent="1" vertex="1">
          <mxGeometry x="394.76" y="1699" width="87" height="30" as="geometry" />
        </mxCell>
        <mxCell id="j4GF3NeZpC48HNPRZgc2-14" value="任务概览" style="ellipse;whiteSpace=wrap;html=1;fillColor=#97D077;" parent="1" vertex="1">
          <mxGeometry x="414" y="1250" width="87" height="30" as="geometry" />
        </mxCell>
        <mxCell id="j4GF3NeZpC48HNPRZgc2-15" value="&amp;lt;&amp;lt;include&amp;gt;&amp;gt;" style="html=1;endArrow=open;verticalAlign=bottom;dashed=1;labelBackgroundColor=none;rounded=0;exitX=1;exitY=0.5;exitDx=0;exitDy=0;entryX=0;entryY=0.5;entryDx=0;entryDy=0;" parent="1" source="j4GF3NeZpC48HNPRZgc2-7" target="j4GF3NeZpC48HNPRZgc2-14" edge="1">
          <mxGeometry x="0.084" y="53" width="160" relative="1" as="geometry">
            <mxPoint x="251" y="1300.48" as="sourcePoint" />
            <mxPoint x="425" y="1315.48" as="targetPoint" />
            <mxPoint as="offset" />
          </mxGeometry>
        </mxCell>
        <mxCell id="j4GF3NeZpC48HNPRZgc2-16" value="&amp;lt;&amp;lt;include&amp;gt;&amp;gt;" style="html=1;endArrow=open;verticalAlign=bottom;dashed=1;labelBackgroundColor=none;rounded=0;exitX=1;exitY=0.5;exitDx=0;exitDy=0;entryX=0;entryY=0.5;entryDx=0;entryDy=0;" parent="1" source="j4GF3NeZpC48HNPRZgc2-7" target="j4GF3NeZpC48HNPRZgc2-13" edge="1">
          <mxGeometry width="160" relative="1" as="geometry">
            <mxPoint x="261" y="1310.48" as="sourcePoint" />
            <mxPoint x="435" y="1325.48" as="targetPoint" />
          </mxGeometry>
        </mxCell>
        <mxCell id="j4GF3NeZpC48HNPRZgc2-25" value="&amp;lt;&amp;lt;include&amp;gt;&amp;gt;" style="edgeStyle=none;html=1;endArrow=open;verticalAlign=bottom;dashed=1;labelBackgroundColor=none;rounded=0;exitX=1;exitY=0.5;exitDx=0;exitDy=0;entryX=0;entryY=0.5;entryDx=0;entryDy=0;" parent="1" source="j4GF3NeZpC48HNPRZgc2-4" target="j4GF3NeZpC48HNPRZgc2-2" edge="1">
          <mxGeometry width="160" relative="1" as="geometry">
            <mxPoint x="293.73" y="50" as="sourcePoint" />
            <mxPoint x="453.73" y="50" as="targetPoint" />
          </mxGeometry>
        </mxCell>
        <mxCell id="j4GF3NeZpC48HNPRZgc2-26" value="进入论坛" style="ellipse;whiteSpace=wrap;html=1;" parent="1" vertex="1">
          <mxGeometry x="170" y="320" width="87" height="30" as="geometry" />
        </mxCell>
        <mxCell id="j4GF3NeZpC48HNPRZgc2-28" value="帖子概览&lt;div&gt;（查询所有帖子）&lt;/div&gt;" style="ellipse;whiteSpace=wrap;html=1;fillColor=#FFFF66;" parent="1" vertex="1">
          <mxGeometry x="384.65000000000003" y="170" width="140" height="50" as="geometry" />
        </mxCell>
        <mxCell id="j4GF3NeZpC48HNPRZgc2-29" value="帖子条件查询" style="ellipse;whiteSpace=wrap;html=1;fillColor=#FFFF66;" parent="1" vertex="1">
          <mxGeometry x="402.26" y="290" width="107" height="40" as="geometry" />
        </mxCell>
        <mxCell id="j4GF3NeZpC48HNPRZgc2-30" value="发表帖子" style="ellipse;whiteSpace=wrap;html=1;fillColor=#FFFF66;" parent="1" vertex="1">
          <mxGeometry x="410" y="415" width="87" height="30" as="geometry" />
        </mxCell>
        <mxCell id="j4GF3NeZpC48HNPRZgc2-31" value="用户发表评论" style="ellipse;whiteSpace=wrap;html=1;fillColor=#FFFF66;" parent="1" vertex="1">
          <mxGeometry x="1048.5" y="227.67000000000002" width="87" height="30" as="geometry" />
        </mxCell>
        <mxCell id="j4GF3NeZpC48HNPRZgc2-32" value="用户回复评论" style="ellipse;whiteSpace=wrap;html=1;fillColor=#FFFF66;" parent="1" vertex="1">
          <mxGeometry x="1048.5" y="272.67" width="87" height="30" as="geometry" />
        </mxCell>
        <mxCell id="j4GF3NeZpC48HNPRZgc2-33" value="&amp;lt;&amp;lt;include&amp;gt;&amp;gt;" style="edgeStyle=none;html=1;endArrow=open;verticalAlign=bottom;dashed=1;labelBackgroundColor=none;rounded=0;entryX=0;entryY=0.5;entryDx=0;entryDy=0;" parent="1" target="j4GF3NeZpC48HNPRZgc2-30" edge="1">
          <mxGeometry width="160" relative="1" as="geometry">
            <mxPoint x="260" y="335" as="sourcePoint" />
            <mxPoint x="600" y="350" as="targetPoint" />
          </mxGeometry>
        </mxCell>
        <mxCell id="j4GF3NeZpC48HNPRZgc2-34" value="&amp;lt;&amp;lt;include&amp;gt;&amp;gt;" style="edgeStyle=none;html=1;endArrow=open;verticalAlign=bottom;dashed=1;labelBackgroundColor=none;rounded=0;entryX=0;entryY=0.5;entryDx=0;entryDy=0;exitX=1;exitY=0.5;exitDx=0;exitDy=0;" parent="1" source="j4GF3NeZpC48HNPRZgc2-26" target="j4GF3NeZpC48HNPRZgc2-29" edge="1">
          <mxGeometry width="160" relative="1" as="geometry">
            <mxPoint x="260" y="330" as="sourcePoint" />
            <mxPoint x="600" y="350" as="targetPoint" />
          </mxGeometry>
        </mxCell>
        <mxCell id="j4GF3NeZpC48HNPRZgc2-35" value="&amp;lt;&amp;lt;include&amp;gt;&amp;gt;" style="edgeStyle=none;html=1;endArrow=open;verticalAlign=bottom;dashed=1;labelBackgroundColor=none;rounded=0;entryX=-0.006;entryY=0.659;entryDx=0;entryDy=0;entryPerimeter=0;exitX=1;exitY=0.5;exitDx=0;exitDy=0;" parent="1" source="j4GF3NeZpC48HNPRZgc2-26" target="j4GF3NeZpC48HNPRZgc2-28" edge="1">
          <mxGeometry width="160" relative="1" as="geometry">
            <mxPoint x="220" y="280" as="sourcePoint" />
            <mxPoint x="380" y="280" as="targetPoint" />
          </mxGeometry>
        </mxCell>
        <mxCell id="j4GF3NeZpC48HNPRZgc2-44" value="广告推广" style="ellipse;whiteSpace=wrap;html=1;" parent="1" vertex="1">
          <mxGeometry x="1250" y="-220" width="87" height="30" as="geometry" />
        </mxCell>
        <mxCell id="j4GF3NeZpC48HNPRZgc2-47" value="收集关键词" style="ellipse;whiteSpace=wrap;html=1;" parent="1" vertex="1">
          <mxGeometry x="1440" y="-110" width="100" height="30" as="geometry" />
        </mxCell>
        <mxCell id="j4GF3NeZpC48HNPRZgc2-51" value="&amp;lt;&amp;lt;extend&amp;gt;&amp;gt;" style="edgeStyle=none;html=1;startArrow=open;endArrow=none;startSize=12;verticalAlign=bottom;dashed=1;labelBackgroundColor=none;rounded=0;entryX=0;entryY=0.5;entryDx=0;entryDy=0;exitX=1;exitY=0.5;exitDx=0;exitDy=0;" parent="1" source="j4GF3NeZpC48HNPRZgc2-62" target="j4GF3NeZpC48HNPRZgc2-47" edge="1">
          <mxGeometry x="0.3614" width="160" relative="1" as="geometry">
            <mxPoint x="450" y="300" as="sourcePoint" />
            <mxPoint x="560" y="300" as="targetPoint" />
            <mxPoint as="offset" />
            <Array as="points">
              <mxPoint x="1300" y="220" />
            </Array>
          </mxGeometry>
        </mxCell>
        <mxCell id="j4GF3NeZpC48HNPRZgc2-52" value="&amp;lt;&amp;lt;extend&amp;gt;&amp;gt;" style="edgeStyle=none;html=1;startArrow=open;endArrow=none;startSize=12;verticalAlign=bottom;dashed=1;labelBackgroundColor=none;rounded=0;entryX=0;entryY=0.5;entryDx=0;entryDy=0;exitX=1;exitY=0.5;exitDx=0;exitDy=0;" parent="1" source="j4GF3NeZpC48HNPRZgc2-29" target="j4GF3NeZpC48HNPRZgc2-47" edge="1">
          <mxGeometry x="0.3583" width="160" relative="1" as="geometry">
            <mxPoint x="450" y="300" as="sourcePoint" />
            <mxPoint x="610" y="300" as="targetPoint" />
            <mxPoint as="offset" />
            <Array as="points">
              <mxPoint x="630" y="380" />
              <mxPoint x="1420" y="390" />
            </Array>
          </mxGeometry>
        </mxCell>
        <mxCell id="j4GF3NeZpC48HNPRZgc2-54" value="&amp;lt;&amp;lt;include&amp;gt;&amp;gt;" style="edgeStyle=none;html=1;endArrow=open;verticalAlign=bottom;dashed=1;labelBackgroundColor=none;rounded=0;exitX=1;exitY=0.5;exitDx=0;exitDy=0;entryX=0.5;entryY=0;entryDx=0;entryDy=0;" parent="1" source="j4GF3NeZpC48HNPRZgc2-44" target="j4GF3NeZpC48HNPRZgc2-47" edge="1">
          <mxGeometry x="0.1789" y="-2" width="160" relative="1" as="geometry">
            <mxPoint x="526.0000000000039" y="154" as="sourcePoint" />
            <mxPoint x="575.999999999995" y="329" as="targetPoint" />
            <mxPoint as="offset" />
          </mxGeometry>
        </mxCell>
        <mxCell id="j4GF3NeZpC48HNPRZgc2-55" value="&amp;lt;&amp;lt;extend&amp;gt;&amp;gt;" style="edgeStyle=none;html=1;startArrow=open;endArrow=none;startSize=12;verticalAlign=bottom;dashed=1;labelBackgroundColor=none;rounded=0;entryX=0;entryY=0.5;entryDx=0;entryDy=0;exitX=1;exitY=0.5;exitDx=0;exitDy=0;" parent="1" source="j4GF3NeZpC48HNPRZgc2-4" target="j4GF3NeZpC48HNPRZgc2-44" edge="1">
          <mxGeometry width="160" relative="1" as="geometry">
            <mxPoint x="420" y="190" as="sourcePoint" />
            <mxPoint x="580" y="190" as="targetPoint" />
            <Array as="points">
              <mxPoint x="730" y="-200" />
            </Array>
          </mxGeometry>
        </mxCell>
        <mxCell id="j4GF3NeZpC48HNPRZgc2-56" value="&amp;lt;&amp;lt;extend&amp;gt;&amp;gt;" style="edgeStyle=none;html=1;startArrow=open;endArrow=none;startSize=12;verticalAlign=bottom;dashed=1;labelBackgroundColor=none;rounded=0;exitX=1;exitY=0.5;exitDx=0;exitDy=0;entryX=0;entryY=0.5;entryDx=0;entryDy=0;" parent="1" source="j4GF3NeZpC48HNPRZgc2-28" target="j4GF3NeZpC48HNPRZgc2-44" edge="1">
          <mxGeometry x="-0.0414" y="6" width="160" relative="1" as="geometry">
            <mxPoint x="440" y="184.66" as="sourcePoint" />
            <mxPoint x="600" y="184.66" as="targetPoint" />
            <Array as="points">
              <mxPoint x="760" y="-110" />
            </Array>
            <mxPoint as="offset" />
          </mxGeometry>
        </mxCell>
        <mxCell id="j4GF3NeZpC48HNPRZgc2-62" value="进入详细帖子" style="ellipse;whiteSpace=wrap;html=1;fillColor=#FFFF66;" parent="1" vertex="1">
          <mxGeometry x="666.83" y="180" width="93.34" height="40" as="geometry" />
        </mxCell>
        <mxCell id="j4GF3NeZpC48HNPRZgc2-64" value="&amp;lt;&amp;lt;include&amp;gt;&amp;gt;" style="edgeStyle=none;html=1;endArrow=open;verticalAlign=bottom;dashed=1;labelBackgroundColor=none;rounded=0;exitX=1;exitY=0.5;exitDx=0;exitDy=0;entryX=0;entryY=0.5;entryDx=0;entryDy=0;" parent="1" source="j4GF3NeZpC48HNPRZgc2-28" target="j4GF3NeZpC48HNPRZgc2-62" edge="1">
          <mxGeometry width="160" relative="1" as="geometry">
            <mxPoint x="450" y="300" as="sourcePoint" />
            <mxPoint x="610" y="300" as="targetPoint" />
          </mxGeometry>
        </mxCell>
        <mxCell id="j4GF3NeZpC48HNPRZgc2-66" value="用户点赞帖子" style="ellipse;whiteSpace=wrap;html=1;fillColor=#FFFF66;" parent="1" vertex="1">
          <mxGeometry x="1068" y="120" width="93" height="30" as="geometry" />
        </mxCell>
        <mxCell id="j4GF3NeZpC48HNPRZgc2-67" value="&amp;lt;&amp;lt;extend&amp;gt;&amp;gt;" style="edgeStyle=none;html=1;startArrow=open;endArrow=none;startSize=12;verticalAlign=bottom;dashed=1;labelBackgroundColor=none;rounded=0;entryX=0;entryY=0.5;entryDx=0;entryDy=0;exitX=1;exitY=0.5;exitDx=0;exitDy=0;" parent="1" source="j4GF3NeZpC48HNPRZgc2-66" target="j4GF3NeZpC48HNPRZgc2-47" edge="1">
          <mxGeometry x="-0.1036" y="7" width="160" relative="1" as="geometry">
            <mxPoint x="276" y="409" as="sourcePoint" />
            <mxPoint x="436" y="409" as="targetPoint" />
            <Array as="points">
              <mxPoint x="1290" y="80" />
            </Array>
            <mxPoint as="offset" />
          </mxGeometry>
        </mxCell>
        <mxCell id="j4GF3NeZpC48HNPRZgc2-68" value="评价帖子" style="ellipse;whiteSpace=wrap;html=1;fillColor=#FFFF66;" parent="1" vertex="1">
          <mxGeometry x="870" y="160" width="80" height="30" as="geometry" />
        </mxCell>
        <mxCell id="j4GF3NeZpC48HNPRZgc2-71" value="任务详情" style="ellipse;whiteSpace=wrap;html=1;fillColor=#97D077;" parent="1" vertex="1">
          <mxGeometry x="660.63" y="1275" width="87" height="30" as="geometry" />
        </mxCell>
        <mxCell id="j4GF3NeZpC48HNPRZgc2-72" value="查看背包" style="ellipse;whiteSpace=wrap;html=1;fillColor=#FFFF66;" parent="1" vertex="1">
          <mxGeometry x="402.64" y="570" width="87" height="30" as="geometry" />
        </mxCell>
        <mxCell id="j4GF3NeZpC48HNPRZgc2-73" value="物品展示" style="ellipse;whiteSpace=wrap;html=1;fillColor=#FFFF66;" parent="1" vertex="1">
          <mxGeometry x="680.11" y="550" width="87" height="30" as="geometry" />
        </mxCell>
        <mxCell id="j4GF3NeZpC48HNPRZgc2-74" value="角色状态(属性)展示" style="ellipse;whiteSpace=wrap;html=1;fillColor=#FFFF66;" parent="1" vertex="1">
          <mxGeometry x="676.26" y="590" width="87" height="30" as="geometry" />
        </mxCell>
        <mxCell id="j4GF3NeZpC48HNPRZgc2-75" value="&amp;lt;&amp;lt;include&amp;gt;&amp;gt;" style="edgeStyle=none;html=1;endArrow=open;verticalAlign=bottom;dashed=1;labelBackgroundColor=none;rounded=0;exitX=1;exitY=0.5;exitDx=0;exitDy=0;entryX=0;entryY=0.5;entryDx=0;entryDy=0;" parent="1" source="CXB07NSwBX4VoINEI6L7-86" target="j4GF3NeZpC48HNPRZgc2-72" edge="1">
          <mxGeometry width="160" relative="1" as="geometry">
            <mxPoint x="596.14" y="310.48" as="sourcePoint" />
            <mxPoint x="756.14" y="310.48" as="targetPoint" />
          </mxGeometry>
        </mxCell>
        <mxCell id="j4GF3NeZpC48HNPRZgc2-80" value="&amp;lt;&amp;lt;include&amp;gt;&amp;gt;" style="edgeStyle=none;html=1;endArrow=open;verticalAlign=bottom;dashed=1;labelBackgroundColor=none;rounded=0;exitX=1;exitY=0.5;exitDx=0;exitDy=0;entryX=0;entryY=0.5;entryDx=0;entryDy=0;" parent="1" source="j4GF3NeZpC48HNPRZgc2-62" target="j4GF3NeZpC48HNPRZgc2-96" edge="1">
          <mxGeometry width="160" relative="1" as="geometry">
            <mxPoint x="520" y="370" as="sourcePoint" />
            <mxPoint x="680" y="370" as="targetPoint" />
          </mxGeometry>
        </mxCell>
        <mxCell id="j4GF3NeZpC48HNPRZgc2-82" value="&amp;lt;&amp;lt;extend&amp;gt;&amp;gt;" style="edgeStyle=none;html=1;startArrow=open;endArrow=none;startSize=12;verticalAlign=bottom;dashed=1;labelBackgroundColor=none;rounded=0;entryX=0;entryY=0.5;entryDx=0;entryDy=0;exitX=1;exitY=0.5;exitDx=0;exitDy=0;" parent="1" source="j4GF3NeZpC48HNPRZgc2-62" target="j4GF3NeZpC48HNPRZgc2-44" edge="1">
          <mxGeometry x="-0.3185" y="9" width="160" relative="1" as="geometry">
            <mxPoint x="630" y="310" as="sourcePoint" />
            <mxPoint x="790" y="310" as="targetPoint" />
            <Array as="points">
              <mxPoint x="820" y="-20" />
            </Array>
            <mxPoint as="offset" />
          </mxGeometry>
        </mxCell>
        <mxCell id="j4GF3NeZpC48HNPRZgc2-84" value="任务点路线规划" style="ellipse;whiteSpace=wrap;html=1;fillColor=#99FFFF;" parent="1" vertex="1">
          <mxGeometry x="1070" y="1340" width="113" height="30" as="geometry" />
        </mxCell>
        <mxCell id="j4GF3NeZpC48HNPRZgc2-85" value="任务提示" style="ellipse;whiteSpace=wrap;html=1;" parent="1" vertex="1">
          <mxGeometry x="1083" y="1220" width="87" height="30" as="geometry" />
        </mxCell>
        <mxCell id="j4GF3NeZpC48HNPRZgc2-86" value="&amp;lt;&amp;lt;include&amp;gt;&amp;gt;" style="edgeStyle=none;html=1;endArrow=open;verticalAlign=bottom;dashed=1;labelBackgroundColor=none;rounded=0;entryX=0;entryY=0.5;entryDx=0;entryDy=0;exitX=1;exitY=0.5;exitDx=0;exitDy=0;" parent="1" source="j4GF3NeZpC48HNPRZgc2-14" target="j4GF3NeZpC48HNPRZgc2-71" edge="1">
          <mxGeometry width="160" relative="1" as="geometry">
            <mxPoint x="584" y="1365.48" as="sourcePoint" />
            <mxPoint x="744" y="1365.48" as="targetPoint" />
          </mxGeometry>
        </mxCell>
        <mxCell id="j4GF3NeZpC48HNPRZgc2-87" value="执行任务" style="ellipse;whiteSpace=wrap;html=1;" parent="1" vertex="1">
          <mxGeometry x="860" y="1275" width="80" height="30" as="geometry" />
        </mxCell>
        <mxCell id="j4GF3NeZpC48HNPRZgc2-88" value="&amp;lt;&amp;lt;include&amp;gt;&amp;gt;" style="edgeStyle=none;html=1;endArrow=open;verticalAlign=bottom;dashed=1;labelBackgroundColor=none;rounded=0;exitX=1;exitY=0.5;exitDx=0;exitDy=0;entryX=0;entryY=0.5;entryDx=0;entryDy=0;" parent="1" source="j4GF3NeZpC48HNPRZgc2-71" target="j4GF3NeZpC48HNPRZgc2-87" edge="1">
          <mxGeometry width="160" relative="1" as="geometry">
            <mxPoint x="584" y="1355.48" as="sourcePoint" />
            <mxPoint x="744" y="1355.48" as="targetPoint" />
          </mxGeometry>
        </mxCell>
        <mxCell id="j4GF3NeZpC48HNPRZgc2-89" value="&amp;lt;&amp;lt;include&amp;gt;&amp;gt;" style="edgeStyle=none;html=1;endArrow=open;verticalAlign=bottom;dashed=1;labelBackgroundColor=none;rounded=0;exitX=1;exitY=0.5;exitDx=0;exitDy=0;entryX=0;entryY=0.5;entryDx=0;entryDy=0;" parent="1" source="j4GF3NeZpC48HNPRZgc2-87" target="j4GF3NeZpC48HNPRZgc2-84" edge="1">
          <mxGeometry width="160" relative="1" as="geometry">
            <mxPoint x="644" y="1380" as="sourcePoint" />
            <mxPoint x="804" y="1380" as="targetPoint" />
          </mxGeometry>
        </mxCell>
        <mxCell id="j4GF3NeZpC48HNPRZgc2-90" value="&amp;lt;&amp;lt;include&amp;gt;&amp;gt;" style="edgeStyle=none;html=1;endArrow=open;verticalAlign=bottom;dashed=1;labelBackgroundColor=none;rounded=0;exitX=1;exitY=0.5;exitDx=0;exitDy=0;entryX=0;entryY=0.5;entryDx=0;entryDy=0;" parent="1" source="j4GF3NeZpC48HNPRZgc2-87" target="j4GF3NeZpC48HNPRZgc2-85" edge="1">
          <mxGeometry width="160" relative="1" as="geometry">
            <mxPoint x="654" y="1384.6599999999999" as="sourcePoint" />
            <mxPoint x="814" y="1384.6599999999999" as="targetPoint" />
          </mxGeometry>
        </mxCell>
        <mxCell id="j4GF3NeZpC48HNPRZgc2-91" value="&amp;lt;&amp;lt;include&amp;gt;&amp;gt;" style="edgeStyle=none;html=1;endArrow=open;verticalAlign=bottom;dashed=1;labelBackgroundColor=none;rounded=0;exitX=1;exitY=0.5;exitDx=0;exitDy=0;entryX=0;entryY=0.5;entryDx=0;entryDy=0;" parent="1" source="j4GF3NeZpC48HNPRZgc2-62" target="j4GF3NeZpC48HNPRZgc2-68" edge="1">
          <mxGeometry width="160" relative="1" as="geometry">
            <mxPoint x="560" y="380" as="sourcePoint" />
            <mxPoint x="720" y="380" as="targetPoint" />
          </mxGeometry>
        </mxCell>
        <mxCell id="j4GF3NeZpC48HNPRZgc2-92" value="&amp;lt;&amp;lt;include&amp;gt;&amp;gt;" style="edgeStyle=none;html=1;endArrow=open;verticalAlign=bottom;dashed=1;labelBackgroundColor=none;rounded=0;exitX=1;exitY=0.5;exitDx=0;exitDy=0;entryX=0;entryY=0.5;entryDx=0;entryDy=0;" parent="1" source="j4GF3NeZpC48HNPRZgc2-68" target="j4GF3NeZpC48HNPRZgc2-66" edge="1">
          <mxGeometry width="160" relative="1" as="geometry">
            <mxPoint x="642.75" y="399" as="sourcePoint" />
            <mxPoint x="802.75" y="399" as="targetPoint" />
          </mxGeometry>
        </mxCell>
        <mxCell id="j4GF3NeZpC48HNPRZgc2-93" value="用户收藏帖子" style="ellipse;whiteSpace=wrap;html=1;fillColor=#FFFF66;" parent="1" vertex="1">
          <mxGeometry x="1068" y="170" width="93" height="30" as="geometry" />
        </mxCell>
        <mxCell id="j4GF3NeZpC48HNPRZgc2-94" value="&amp;lt;&amp;lt;include&amp;gt;&amp;gt;" style="edgeStyle=none;html=1;endArrow=open;verticalAlign=bottom;dashed=1;labelBackgroundColor=none;rounded=0;exitX=1;exitY=0.5;exitDx=0;exitDy=0;entryX=0;entryY=0.5;entryDx=0;entryDy=0;" parent="1" source="j4GF3NeZpC48HNPRZgc2-68" target="j4GF3NeZpC48HNPRZgc2-93" edge="1">
          <mxGeometry width="160" relative="1" as="geometry">
            <mxPoint x="642.75" y="399" as="sourcePoint" />
            <mxPoint x="802.75" y="399" as="targetPoint" />
          </mxGeometry>
        </mxCell>
        <mxCell id="j4GF3NeZpC48HNPRZgc2-95" value="&amp;lt;&amp;lt;extend&amp;gt;&amp;gt;" style="edgeStyle=none;html=1;startArrow=open;endArrow=none;startSize=12;verticalAlign=bottom;dashed=1;labelBackgroundColor=none;rounded=0;entryX=0;entryY=0.5;entryDx=0;entryDy=0;exitX=1;exitY=0.5;exitDx=0;exitDy=0;" parent="1" source="j4GF3NeZpC48HNPRZgc2-93" target="j4GF3NeZpC48HNPRZgc2-47" edge="1">
          <mxGeometry x="-0.0544" y="5" width="160" relative="1" as="geometry">
            <mxPoint x="926" y="623" as="sourcePoint" />
            <mxPoint x="1086" y="623" as="targetPoint" />
            <Array as="points">
              <mxPoint x="1320" y="120" />
            </Array>
            <mxPoint as="offset" />
          </mxGeometry>
        </mxCell>
        <mxCell id="j4GF3NeZpC48HNPRZgc2-96" value="评论区操作" style="ellipse;whiteSpace=wrap;html=1;fillColor=#FFFF66;" parent="1" vertex="1">
          <mxGeometry x="870" y="265" width="80" height="30" as="geometry" />
        </mxCell>
        <mxCell id="j4GF3NeZpC48HNPRZgc2-98" value="&amp;lt;&amp;lt;include&amp;gt;&amp;gt;" style="edgeStyle=none;html=1;endArrow=open;verticalAlign=bottom;dashed=1;labelBackgroundColor=none;rounded=0;exitX=1;exitY=0.5;exitDx=0;exitDy=0;entryX=0;entryY=0.5;entryDx=0;entryDy=0;" parent="1" source="j4GF3NeZpC48HNPRZgc2-96" target="j4GF3NeZpC48HNPRZgc2-31" edge="1">
          <mxGeometry width="160" relative="1" as="geometry">
            <mxPoint x="549.75" y="396.33" as="sourcePoint" />
            <mxPoint x="709.75" y="396.33" as="targetPoint" />
          </mxGeometry>
        </mxCell>
        <mxCell id="j4GF3NeZpC48HNPRZgc2-99" value="&amp;lt;&amp;lt;include&amp;gt;&amp;gt;" style="edgeStyle=none;html=1;endArrow=open;verticalAlign=bottom;dashed=1;labelBackgroundColor=none;rounded=0;exitX=1;exitY=0.5;exitDx=0;exitDy=0;entryX=0;entryY=0.5;entryDx=0;entryDy=0;" parent="1" source="j4GF3NeZpC48HNPRZgc2-96" target="j4GF3NeZpC48HNPRZgc2-32" edge="1">
          <mxGeometry width="160" relative="1" as="geometry">
            <mxPoint x="552.75" y="331.33" as="sourcePoint" />
            <mxPoint x="712.75" y="331.33" as="targetPoint" />
          </mxGeometry>
        </mxCell>
        <mxCell id="j4GF3NeZpC48HNPRZgc2-100" value="用户点赞评论、回复" style="ellipse;whiteSpace=wrap;html=1;fillColor=#FFFF66;" parent="1" vertex="1">
          <mxGeometry x="1030" y="320" width="131" height="30" as="geometry" />
        </mxCell>
        <mxCell id="j4GF3NeZpC48HNPRZgc2-103" style="edgeStyle=orthogonalEdgeStyle;rounded=0;orthogonalLoop=1;jettySize=auto;html=1;exitX=0.5;exitY=1;exitDx=0;exitDy=0;" parent="1" edge="1">
          <mxGeometry relative="1" as="geometry">
            <mxPoint x="1081" y="304.99999999999994" as="sourcePoint" />
            <mxPoint x="1081" y="304.99999999999994" as="targetPoint" />
          </mxGeometry>
        </mxCell>
        <mxCell id="j4GF3NeZpC48HNPRZgc2-104" value="&amp;lt;&amp;lt;include&amp;gt;&amp;gt;" style="edgeStyle=none;html=1;endArrow=open;verticalAlign=bottom;dashed=1;labelBackgroundColor=none;rounded=0;exitX=1;exitY=0.5;exitDx=0;exitDy=0;entryX=0;entryY=0.5;entryDx=0;entryDy=0;" parent="1" source="j4GF3NeZpC48HNPRZgc2-72" target="j4GF3NeZpC48HNPRZgc2-73" edge="1">
          <mxGeometry width="160" relative="1" as="geometry">
            <mxPoint x="723.64" y="414" as="sourcePoint" />
            <mxPoint x="883.64" y="414" as="targetPoint" />
          </mxGeometry>
        </mxCell>
        <mxCell id="j4GF3NeZpC48HNPRZgc2-105" value="&amp;lt;&amp;lt;include&amp;gt;&amp;gt;" style="edgeStyle=none;html=1;endArrow=open;verticalAlign=bottom;dashed=1;labelBackgroundColor=none;rounded=0;exitX=1;exitY=0.5;exitDx=0;exitDy=0;entryX=0;entryY=0.5;entryDx=0;entryDy=0;" parent="1" source="j4GF3NeZpC48HNPRZgc2-72" target="j4GF3NeZpC48HNPRZgc2-74" edge="1">
          <mxGeometry width="160" relative="1" as="geometry">
            <mxPoint x="763.64" y="658.5" as="sourcePoint" />
            <mxPoint x="923.64" y="658.5" as="targetPoint" />
          </mxGeometry>
        </mxCell>
        <mxCell id="j4GF3NeZpC48HNPRZgc2-106" value="当前位置定位" style="ellipse;whiteSpace=wrap;html=1;fillColor=#97D077;" parent="1" vertex="1">
          <mxGeometry x="664" y="1395" width="87" height="30" as="geometry" />
        </mxCell>
        <mxCell id="j4GF3NeZpC48HNPRZgc2-107" value="任务点展示" style="ellipse;whiteSpace=wrap;html=1;fillColor=#99FFFF;" parent="1" vertex="1">
          <mxGeometry x="664" y="1450" width="87" height="30" as="geometry" />
        </mxCell>
        <mxCell id="j4GF3NeZpC48HNPRZgc2-108" value="&amp;lt;&amp;lt;include&amp;gt;&amp;gt;" style="edgeStyle=none;html=1;endArrow=open;verticalAlign=bottom;dashed=1;labelBackgroundColor=none;rounded=0;exitX=1;exitY=0.5;exitDx=0;exitDy=0;entryX=0;entryY=0.5;entryDx=0;entryDy=0;" parent="1" source="j4GF3NeZpC48HNPRZgc2-6" target="j4GF3NeZpC48HNPRZgc2-106" edge="1">
          <mxGeometry width="160" relative="1" as="geometry">
            <mxPoint x="744" y="1420.48" as="sourcePoint" />
            <mxPoint x="904" y="1420.48" as="targetPoint" />
          </mxGeometry>
        </mxCell>
        <mxCell id="j4GF3NeZpC48HNPRZgc2-109" value="&amp;lt;&amp;lt;include&amp;gt;&amp;gt;" style="edgeStyle=none;html=1;endArrow=open;verticalAlign=bottom;dashed=1;labelBackgroundColor=none;rounded=0;exitX=1;exitY=0.5;exitDx=0;exitDy=0;entryX=0;entryY=0.5;entryDx=0;entryDy=0;" parent="1" source="j4GF3NeZpC48HNPRZgc2-6" target="j4GF3NeZpC48HNPRZgc2-107" edge="1">
          <mxGeometry width="160" relative="1" as="geometry">
            <mxPoint x="704" y="1280.48" as="sourcePoint" />
            <mxPoint x="864" y="1280.48" as="targetPoint" />
          </mxGeometry>
        </mxCell>
        <mxCell id="j4GF3NeZpC48HNPRZgc2-110" style="edgeStyle=orthogonalEdgeStyle;rounded=0;orthogonalLoop=1;jettySize=auto;html=1;exitX=0.5;exitY=1;exitDx=0;exitDy=0;" parent="1" source="j4GF3NeZpC48HNPRZgc2-107" target="j4GF3NeZpC48HNPRZgc2-107" edge="1">
          <mxGeometry relative="1" as="geometry" />
        </mxCell>
        <mxCell id="j4GF3NeZpC48HNPRZgc2-112" value="&amp;lt;&amp;lt;include&amp;gt;&amp;gt;" style="edgeStyle=none;html=1;endArrow=open;verticalAlign=bottom;dashed=1;labelBackgroundColor=none;rounded=0;exitX=1;exitY=0.5;exitDx=0;exitDy=0;entryX=0;entryY=0.5;entryDx=0;entryDy=0;" parent="1" source="j4GF3NeZpC48HNPRZgc2-96" target="j4GF3NeZpC48HNPRZgc2-100" edge="1">
          <mxGeometry width="160" relative="1" as="geometry">
            <mxPoint x="952.75" y="421.33" as="sourcePoint" />
            <mxPoint x="1112.75" y="421.33" as="targetPoint" />
          </mxGeometry>
        </mxCell>
        <mxCell id="j4GF3NeZpC48HNPRZgc2-114" value="任务点打卡" style="ellipse;whiteSpace=wrap;html=1;fillColor=#FFFF66;" parent="1" vertex="1">
          <mxGeometry x="1083.5" y="1275" width="87" height="30" as="geometry" />
        </mxCell>
        <mxCell id="j4GF3NeZpC48HNPRZgc2-118" value="主题查询" style="ellipse;whiteSpace=wrap;html=1;" parent="1" vertex="1">
          <mxGeometry x="670.0999999999999" y="242.67" width="87" height="30" as="geometry" />
        </mxCell>
        <mxCell id="j4GF3NeZpC48HNPRZgc2-119" value="关键词查询" style="ellipse;whiteSpace=wrap;html=1;fillColor=#FFFF66;" parent="1" vertex="1">
          <mxGeometry x="672.2299999999999" y="290" width="87" height="30" as="geometry" />
        </mxCell>
        <mxCell id="j4GF3NeZpC48HNPRZgc2-122" value="&amp;lt;&amp;lt;include&amp;gt;&amp;gt;" style="edgeStyle=none;html=1;endArrow=open;verticalAlign=bottom;dashed=1;labelBackgroundColor=none;rounded=0;exitX=1;exitY=0.5;exitDx=0;exitDy=0;entryX=0;entryY=0.5;entryDx=0;entryDy=0;" parent="1" source="j4GF3NeZpC48HNPRZgc2-29" target="j4GF3NeZpC48HNPRZgc2-118" edge="1">
          <mxGeometry width="160" relative="1" as="geometry">
            <mxPoint x="790" y="410" as="sourcePoint" />
            <mxPoint x="950" y="410" as="targetPoint" />
          </mxGeometry>
        </mxCell>
        <mxCell id="j4GF3NeZpC48HNPRZgc2-123" value="&amp;lt;&amp;lt;include&amp;gt;&amp;gt;" style="edgeStyle=none;html=1;endArrow=open;verticalAlign=bottom;dashed=1;labelBackgroundColor=none;rounded=0;exitX=1;exitY=0.5;exitDx=0;exitDy=0;entryX=0;entryY=0.5;entryDx=0;entryDy=0;" parent="1" source="j4GF3NeZpC48HNPRZgc2-29" target="j4GF3NeZpC48HNPRZgc2-119" edge="1">
          <mxGeometry width="160" relative="1" as="geometry">
            <mxPoint x="790" y="410" as="sourcePoint" />
            <mxPoint x="950" y="410" as="targetPoint" />
          </mxGeometry>
        </mxCell>
        <mxCell id="j4GF3NeZpC48HNPRZgc2-125" value="&amp;lt;&amp;lt;extend&amp;gt;&amp;gt;" style="edgeStyle=none;html=1;startArrow=open;endArrow=none;startSize=12;verticalAlign=bottom;dashed=1;labelBackgroundColor=none;rounded=0;entryX=0;entryY=0.5;entryDx=0;entryDy=0;exitX=1;exitY=0.5;exitDx=0;exitDy=0;" parent="1" source="j4GF3NeZpC48HNPRZgc2-100" target="j4GF3NeZpC48HNPRZgc2-47" edge="1">
          <mxGeometry x="-0.191" y="2" width="160" relative="1" as="geometry">
            <mxPoint x="616" y="329" as="sourcePoint" />
            <mxPoint x="776" y="329" as="targetPoint" />
            <Array as="points">
              <mxPoint x="1370" y="220" />
            </Array>
            <mxPoint as="offset" />
          </mxGeometry>
        </mxCell>
        <mxCell id="j4GF3NeZpC48HNPRZgc2-126" value="&amp;lt;&amp;lt;include&amp;gt;&amp;gt;" style="edgeStyle=none;html=1;endArrow=open;verticalAlign=bottom;dashed=1;labelBackgroundColor=none;rounded=0;exitX=1;exitY=0.5;exitDx=0;exitDy=0;entryX=0;entryY=0.5;entryDx=0;entryDy=0;" parent="1" source="j4GF3NeZpC48HNPRZgc2-30" target="j4GF3NeZpC48HNPRZgc2-129" edge="1">
          <mxGeometry width="160" relative="1" as="geometry">
            <mxPoint x="760" y="325" as="sourcePoint" />
            <mxPoint x="520.0000000000077" y="437.5" as="targetPoint" />
          </mxGeometry>
        </mxCell>
        <mxCell id="j4GF3NeZpC48HNPRZgc2-127" value="&amp;lt;&amp;lt;include&amp;gt;&amp;gt;" style="edgeStyle=none;html=1;endArrow=open;verticalAlign=bottom;dashed=1;labelBackgroundColor=none;rounded=0;exitX=1;exitY=0.5;exitDx=0;exitDy=0;entryX=0;entryY=0.5;entryDx=0;entryDy=0;" parent="1" source="j4GF3NeZpC48HNPRZgc2-30" target="j4GF3NeZpC48HNPRZgc2-128" edge="1">
          <mxGeometry width="160" relative="1" as="geometry">
            <mxPoint x="760" y="325" as="sourcePoint" />
            <mxPoint x="520.000000000005" y="490" as="targetPoint" />
          </mxGeometry>
        </mxCell>
        <mxCell id="j4GF3NeZpC48HNPRZgc2-128" value="发表常规帖" style="ellipse;whiteSpace=wrap;html=1;fillColor=#FFFF66;" parent="1" vertex="1">
          <mxGeometry x="670" y="446" width="87" height="30" as="geometry" />
        </mxCell>
        <mxCell id="j4GF3NeZpC48HNPRZgc2-129" value="发表任务帖" style="ellipse;whiteSpace=wrap;html=1;fillColor=#FFFF66;" parent="1" vertex="1">
          <mxGeometry x="670" y="391" width="87" height="30" as="geometry" />
        </mxCell>
        <mxCell id="j4GF3NeZpC48HNPRZgc2-130" value="管理员" style="shape=umlActor;html=1;verticalLabelPosition=bottom;verticalAlign=top;align=center;" parent="1" vertex="1">
          <mxGeometry x="-80" y="2465" width="30" height="60" as="geometry" />
        </mxCell>
        <mxCell id="j4GF3NeZpC48HNPRZgc2-133" value="&amp;lt;&amp;lt;extend&amp;gt;&amp;gt;" style="edgeStyle=none;html=1;startArrow=open;endArrow=none;startSize=12;verticalAlign=bottom;dashed=1;labelBackgroundColor=none;rounded=0;entryX=0;entryY=0.5;entryDx=0;entryDy=0;exitX=1;exitY=0.5;exitDx=0;exitDy=0;" parent="1" source="j4GF3NeZpC48HNPRZgc2-29" target="j4GF3NeZpC48HNPRZgc2-44" edge="1">
          <mxGeometry width="160" relative="1" as="geometry">
            <mxPoint x="500" y="300" as="sourcePoint" />
            <mxPoint x="860" y="200" as="targetPoint" />
            <Array as="points">
              <mxPoint x="800" y="-80" />
            </Array>
          </mxGeometry>
        </mxCell>
        <mxCell id="CXB07NSwBX4VoINEI6L7-5" value="积分展示" style="ellipse;whiteSpace=wrap;html=1;" parent="1" vertex="1">
          <mxGeometry x="645.52" y="1670" width="87" height="30" as="geometry" />
        </mxCell>
        <mxCell id="CXB07NSwBX4VoINEI6L7-6" value="任务完成度展示" style="ellipse;whiteSpace=wrap;html=1;" parent="1" vertex="1">
          <mxGeometry x="617.63" y="1728" width="130" height="30" as="geometry" />
        </mxCell>
        <mxCell id="CXB07NSwBX4VoINEI6L7-7" value="&amp;lt;&amp;lt;include&amp;gt;&amp;gt;" style="edgeStyle=none;html=1;endArrow=open;verticalAlign=bottom;dashed=1;labelBackgroundColor=none;rounded=0;exitX=1;exitY=0.5;exitDx=0;exitDy=0;entryX=0;entryY=0.5;entryDx=0;entryDy=0;" parent="1" source="j4GF3NeZpC48HNPRZgc2-13" target="CXB07NSwBX4VoINEI6L7-5" edge="1">
          <mxGeometry width="160" relative="1" as="geometry">
            <mxPoint x="707.26" y="1589.48" as="sourcePoint" />
            <mxPoint x="867.26" y="1589.48" as="targetPoint" />
          </mxGeometry>
        </mxCell>
        <mxCell id="CXB07NSwBX4VoINEI6L7-8" value="&amp;lt;&amp;lt;include&amp;gt;&amp;gt;" style="edgeStyle=none;html=1;endArrow=open;verticalAlign=bottom;dashed=1;labelBackgroundColor=none;rounded=0;exitX=1;exitY=0.5;exitDx=0;exitDy=0;entryX=0;entryY=0.5;entryDx=0;entryDy=0;" parent="1" source="j4GF3NeZpC48HNPRZgc2-13" target="CXB07NSwBX4VoINEI6L7-6" edge="1">
          <mxGeometry width="160" relative="1" as="geometry">
            <mxPoint x="644.26" y="1849.48" as="sourcePoint" />
            <mxPoint x="804.26" y="1849.48" as="targetPoint" />
          </mxGeometry>
        </mxCell>
        <mxCell id="CXB07NSwBX4VoINEI6L7-11" value="管理员用户操作" style="ellipse;whiteSpace=wrap;html=1;" parent="1" vertex="1">
          <mxGeometry x="166" y="2500" width="104.51" height="30" as="geometry" />
        </mxCell>
        <mxCell id="CXB07NSwBX4VoINEI6L7-12" value="任务发布" style="ellipse;whiteSpace=wrap;html=1;fillColor=#FF9999;" parent="1" vertex="1">
          <mxGeometry x="418.22" y="2730" width="87" height="30" as="geometry" />
        </mxCell>
        <mxCell id="CXB07NSwBX4VoINEI6L7-13" value="管理广告" style="ellipse;whiteSpace=wrap;html=1;" parent="1" vertex="1">
          <mxGeometry x="178.42" y="3190" width="87" height="30" as="geometry" />
        </mxCell>
        <mxCell id="CXB07NSwBX4VoINEI6L7-21" value="创建账号" style="ellipse;whiteSpace=wrap;html=1;" parent="1" vertex="1">
          <mxGeometry x="405.51" y="2420" width="87" height="30" as="geometry" />
        </mxCell>
        <mxCell id="CXB07NSwBX4VoINEI6L7-22" value="&amp;lt;&amp;lt;include&amp;gt;&amp;gt;" style="edgeStyle=none;html=1;endArrow=open;verticalAlign=bottom;dashed=1;labelBackgroundColor=none;rounded=0;exitX=1;exitY=0.5;exitDx=0;exitDy=0;entryX=0;entryY=0.5;entryDx=0;entryDy=0;" parent="1" source="CXB07NSwBX4VoINEI6L7-11" target="CXB07NSwBX4VoINEI6L7-21" edge="1">
          <mxGeometry width="160" relative="1" as="geometry">
            <mxPoint x="765.51" y="2640" as="sourcePoint" />
            <mxPoint x="925.51" y="2640" as="targetPoint" />
          </mxGeometry>
        </mxCell>
        <mxCell id="CXB07NSwBX4VoINEI6L7-23" value="修改信息" style="ellipse;whiteSpace=wrap;html=1;" parent="1" vertex="1">
          <mxGeometry x="402.26" y="2520" width="93.5" height="30" as="geometry" />
        </mxCell>
        <mxCell id="CXB07NSwBX4VoINEI6L7-24" value="删除用户" style="ellipse;whiteSpace=wrap;html=1;" parent="1" vertex="1">
          <mxGeometry x="405.51" y="2470" width="87" height="30" as="geometry" />
        </mxCell>
        <mxCell id="CXB07NSwBX4VoINEI6L7-25" value="查询用户" style="ellipse;whiteSpace=wrap;html=1;" parent="1" vertex="1">
          <mxGeometry x="402.26" y="2570" width="93.5" height="30" as="geometry" />
        </mxCell>
        <mxCell id="CXB07NSwBX4VoINEI6L7-26" value="&amp;lt;&amp;lt;include&amp;gt;&amp;gt;" style="edgeStyle=none;html=1;endArrow=open;verticalAlign=bottom;dashed=1;labelBackgroundColor=none;rounded=0;exitX=1;exitY=0.5;exitDx=0;exitDy=0;entryX=0;entryY=0.5;entryDx=0;entryDy=0;" parent="1" source="CXB07NSwBX4VoINEI6L7-11" target="CXB07NSwBX4VoINEI6L7-24" edge="1">
          <mxGeometry width="160" relative="1" as="geometry">
            <mxPoint x="635.51" y="2540" as="sourcePoint" />
            <mxPoint x="795.51" y="2540" as="targetPoint" />
          </mxGeometry>
        </mxCell>
        <mxCell id="CXB07NSwBX4VoINEI6L7-27" value="&amp;lt;&amp;lt;include&amp;gt;&amp;gt;" style="edgeStyle=none;html=1;endArrow=open;verticalAlign=bottom;dashed=1;labelBackgroundColor=none;rounded=0;exitX=1;exitY=0.5;exitDx=0;exitDy=0;entryX=0;entryY=0.5;entryDx=0;entryDy=0;" parent="1" source="CXB07NSwBX4VoINEI6L7-11" target="CXB07NSwBX4VoINEI6L7-23" edge="1">
          <mxGeometry width="160" relative="1" as="geometry">
            <mxPoint x="635.51" y="2540" as="sourcePoint" />
            <mxPoint x="795.51" y="2540" as="targetPoint" />
          </mxGeometry>
        </mxCell>
        <mxCell id="CXB07NSwBX4VoINEI6L7-28" value="&amp;lt;&amp;lt;include&amp;gt;&amp;gt;" style="edgeStyle=none;html=1;endArrow=open;verticalAlign=bottom;dashed=1;labelBackgroundColor=none;rounded=0;exitX=1;exitY=0.5;exitDx=0;exitDy=0;entryX=0;entryY=0.5;entryDx=0;entryDy=0;" parent="1" source="CXB07NSwBX4VoINEI6L7-11" target="CXB07NSwBX4VoINEI6L7-25" edge="1">
          <mxGeometry width="160" relative="1" as="geometry">
            <mxPoint x="635.51" y="2540" as="sourcePoint" />
            <mxPoint x="795.51" y="2540" as="targetPoint" />
          </mxGeometry>
        </mxCell>
        <mxCell id="CXB07NSwBX4VoINEI6L7-31" value="&amp;lt;&amp;lt;include&amp;gt;&amp;gt;" style="edgeStyle=none;html=1;endArrow=open;verticalAlign=bottom;dashed=1;labelBackgroundColor=none;rounded=0;entryX=0;entryY=0.5;entryDx=0;entryDy=0;exitX=1;exitY=0.5;exitDx=0;exitDy=0;" parent="1" source="j4GF3NeZpC48HNPRZgc2-87" target="j4GF3NeZpC48HNPRZgc2-114" edge="1">
          <mxGeometry width="160" relative="1" as="geometry">
            <mxPoint x="644" y="1375" as="sourcePoint" />
            <mxPoint x="804" y="1375" as="targetPoint" />
          </mxGeometry>
        </mxCell>
        <mxCell id="CXB07NSwBX4VoINEI6L7-32" style="edgeStyle=orthogonalEdgeStyle;rounded=0;orthogonalLoop=1;jettySize=auto;html=1;exitX=0.5;exitY=1;exitDx=0;exitDy=0;" parent="1" source="j4GF3NeZpC48HNPRZgc2-84" target="j4GF3NeZpC48HNPRZgc2-84" edge="1">
          <mxGeometry relative="1" as="geometry" />
        </mxCell>
        <mxCell id="CXB07NSwBX4VoINEI6L7-33" value="可视化展示" style="ellipse;whiteSpace=wrap;html=1;fillColor=#FF9999;" parent="1" vertex="1">
          <mxGeometry x="162.64" y="1860" width="87" height="30" as="geometry" />
        </mxCell>
        <mxCell id="CXB07NSwBX4VoINEI6L7-35" value="各学院学生完成度展示" style="ellipse;whiteSpace=wrap;html=1;" parent="1" vertex="1">
          <mxGeometry x="405.43" y="1862.5" width="156.25" height="40" as="geometry" />
        </mxCell>
        <mxCell id="CXB07NSwBX4VoINEI6L7-36" value="学生信息导入‘&lt;br&gt;excel" style="ellipse;whiteSpace=wrap;html=1;fillColor=#FF9999;" parent="1" vertex="1">
          <mxGeometry x="652.25" y="2415" width="120" height="40" as="geometry" />
        </mxCell>
        <mxCell id="CXB07NSwBX4VoINEI6L7-37" value="&amp;lt;&amp;lt;include&amp;gt;&amp;gt;" style="edgeStyle=none;html=1;endArrow=open;verticalAlign=bottom;dashed=1;labelBackgroundColor=none;rounded=0;exitX=1;exitY=0.5;exitDx=0;exitDy=0;entryX=0;entryY=0.5;entryDx=0;entryDy=0;" parent="1" source="CXB07NSwBX4VoINEI6L7-21" target="CXB07NSwBX4VoINEI6L7-36" edge="1">
          <mxGeometry width="160" relative="1" as="geometry">
            <mxPoint x="505.51" y="2520" as="sourcePoint" />
            <mxPoint x="665.51" y="2520" as="targetPoint" />
          </mxGeometry>
        </mxCell>
        <mxCell id="CXB07NSwBX4VoINEI6L7-38" value="管理员任务操作" style="ellipse;whiteSpace=wrap;html=1;" parent="1" vertex="1">
          <mxGeometry x="168.1" y="2770" width="99.5" height="30" as="geometry" />
        </mxCell>
        <mxCell id="CXB07NSwBX4VoINEI6L7-39" value="&amp;lt;&amp;lt;include&amp;gt;&amp;gt;" style="edgeStyle=none;html=1;endArrow=open;verticalAlign=bottom;dashed=1;labelBackgroundColor=none;rounded=0;exitX=1;exitY=0.5;exitDx=0;exitDy=0;entryX=0;entryY=0.5;entryDx=0;entryDy=0;" parent="1" source="CXB07NSwBX4VoINEI6L7-38" target="CXB07NSwBX4VoINEI6L7-12" edge="1">
          <mxGeometry width="160" relative="1" as="geometry">
            <mxPoint x="513.6" y="2680" as="sourcePoint" />
            <mxPoint x="673.6" y="2680" as="targetPoint" />
          </mxGeometry>
        </mxCell>
        <mxCell id="CXB07NSwBX4VoINEI6L7-41" value="&amp;lt;&amp;lt;include&amp;gt;&amp;gt;" style="edgeStyle=none;html=1;endArrow=open;verticalAlign=bottom;dashed=1;labelBackgroundColor=none;rounded=0;exitX=1;exitY=0.5;exitDx=0;exitDy=0;entryX=0;entryY=0.5;entryDx=0;entryDy=0;" parent="1" source="CXB07NSwBX4VoINEI6L7-33" target="j4GF3NeZpC48HNPRZgc2-13" edge="1">
          <mxGeometry width="160" relative="1" as="geometry">
            <mxPoint x="550" y="1020" as="sourcePoint" />
            <mxPoint x="710" y="1020" as="targetPoint" />
          </mxGeometry>
        </mxCell>
        <mxCell id="CXB07NSwBX4VoINEI6L7-42" value="&amp;lt;&amp;lt;include&amp;gt;&amp;gt;" style="edgeStyle=none;html=1;endArrow=open;verticalAlign=bottom;dashed=1;labelBackgroundColor=none;rounded=0;exitX=1;exitY=0.5;exitDx=0;exitDy=0;entryX=0;entryY=0.5;entryDx=0;entryDy=0;" parent="1" source="CXB07NSwBX4VoINEI6L7-33" target="CXB07NSwBX4VoINEI6L7-35" edge="1">
          <mxGeometry width="160" relative="1" as="geometry">
            <mxPoint x="618.48" y="1806" as="sourcePoint" />
            <mxPoint x="778.48" y="1806" as="targetPoint" />
          </mxGeometry>
        </mxCell>
        <mxCell id="CXB07NSwBX4VoINEI6L7-43" value="重置任务" style="ellipse;whiteSpace=wrap;html=1;" parent="1" vertex="1">
          <mxGeometry x="672.23" y="2930" width="86" height="30" as="geometry" />
        </mxCell>
        <mxCell id="CXB07NSwBX4VoINEI6L7-44" value="提前完成" style="ellipse;whiteSpace=wrap;html=1;" parent="1" vertex="1">
          <mxGeometry x="672.2300000000001" y="2980" width="84.87" height="30" as="geometry" />
        </mxCell>
        <mxCell id="CXB07NSwBX4VoINEI6L7-46" value="&amp;lt;&amp;lt;include&amp;gt;&amp;gt;" style="edgeStyle=none;html=1;endArrow=open;verticalAlign=bottom;dashed=1;labelBackgroundColor=none;rounded=0;exitX=1;exitY=0.5;exitDx=0;exitDy=0;entryX=0;entryY=0.5;entryDx=0;entryDy=0;" parent="1" source="CXB07NSwBX4VoINEI6L7-38" target="CXB07NSwBX4VoINEI6L7-63" edge="1">
          <mxGeometry width="160" relative="1" as="geometry">
            <mxPoint x="533.6" y="2710" as="sourcePoint" />
            <mxPoint x="273.6" y="2980" as="targetPoint" />
          </mxGeometry>
        </mxCell>
        <mxCell id="CXB07NSwBX4VoINEI6L7-47" value="设置打卡点" style="ellipse;whiteSpace=wrap;html=1;" parent="1" vertex="1">
          <mxGeometry x="673.61" y="2700" width="93.5" height="30" as="geometry" />
        </mxCell>
        <mxCell id="CXB07NSwBX4VoINEI6L7-48" value="&amp;lt;&amp;lt;include&amp;gt;&amp;gt;" style="edgeStyle=none;html=1;endArrow=open;verticalAlign=bottom;dashed=1;labelBackgroundColor=none;rounded=0;exitX=1;exitY=0.5;exitDx=0;exitDy=0;entryX=0;entryY=0.5;entryDx=0;entryDy=0;" parent="1" source="CXB07NSwBX4VoINEI6L7-12" target="CXB07NSwBX4VoINEI6L7-47" edge="1">
          <mxGeometry width="160" relative="1" as="geometry">
            <mxPoint x="533.6" y="2640" as="sourcePoint" />
            <mxPoint x="693.6" y="2640" as="targetPoint" />
          </mxGeometry>
        </mxCell>
        <mxCell id="CXB07NSwBX4VoINEI6L7-49" value="学生账号认证情况" style="ellipse;whiteSpace=wrap;html=1;" parent="1" vertex="1">
          <mxGeometry x="425.87" y="1830" width="115.38" height="30" as="geometry" />
        </mxCell>
        <mxCell id="CXB07NSwBX4VoINEI6L7-50" value="&amp;lt;&amp;lt;include&amp;gt;&amp;gt;" style="edgeStyle=none;html=1;endArrow=open;verticalAlign=bottom;dashed=1;labelBackgroundColor=none;rounded=0;exitX=1;exitY=0.5;exitDx=0;exitDy=0;entryX=0;entryY=0.5;entryDx=0;entryDy=0;" parent="1" source="CXB07NSwBX4VoINEI6L7-33" target="CXB07NSwBX4VoINEI6L7-49" edge="1">
          <mxGeometry width="160" relative="1" as="geometry">
            <mxPoint x="598.48" y="1786" as="sourcePoint" />
            <mxPoint x="758.48" y="1786" as="targetPoint" />
          </mxGeometry>
        </mxCell>
        <mxCell id="CXB07NSwBX4VoINEI6L7-52" value="广告数据展示" style="ellipse;whiteSpace=wrap;html=1;" parent="1" vertex="1">
          <mxGeometry x="421.67" y="3110" width="106" height="30" as="geometry" />
        </mxCell>
        <mxCell id="CXB07NSwBX4VoINEI6L7-53" value="&amp;lt;&amp;lt;include&amp;gt;&amp;gt;" style="edgeStyle=none;html=1;endArrow=open;verticalAlign=bottom;dashed=1;labelBackgroundColor=none;rounded=0;exitX=1;exitY=0.5;exitDx=0;exitDy=0;entryX=0;entryY=0.5;entryDx=0;entryDy=0;" parent="1" source="CXB07NSwBX4VoINEI6L7-13" target="CXB07NSwBX4VoINEI6L7-52" edge="1">
          <mxGeometry width="160" relative="1" as="geometry">
            <mxPoint x="332.61" y="2990" as="sourcePoint" />
            <mxPoint x="492.61000000000007" y="2990" as="targetPoint" />
          </mxGeometry>
        </mxCell>
        <mxCell id="CXB07NSwBX4VoINEI6L7-54" value="发布广告" style="ellipse;whiteSpace=wrap;html=1;" parent="1" vertex="1">
          <mxGeometry x="421.67" y="3160" width="106" height="30" as="geometry" />
        </mxCell>
        <mxCell id="CXB07NSwBX4VoINEI6L7-55" value="&amp;lt;&amp;lt;include&amp;gt;&amp;gt;" style="edgeStyle=none;html=1;endArrow=open;verticalAlign=bottom;dashed=1;labelBackgroundColor=none;rounded=0;exitX=1;exitY=0.5;exitDx=0;exitDy=0;entryX=0;entryY=0.5;entryDx=0;entryDy=0;" parent="1" source="CXB07NSwBX4VoINEI6L7-13" target="CXB07NSwBX4VoINEI6L7-54" edge="1">
          <mxGeometry width="160" relative="1" as="geometry">
            <mxPoint x="552.6100000000001" y="2820" as="sourcePoint" />
            <mxPoint x="712.6100000000001" y="2820" as="targetPoint" />
          </mxGeometry>
        </mxCell>
        <mxCell id="CXB07NSwBX4VoINEI6L7-57" value="删除任务" style="ellipse;whiteSpace=wrap;html=1;" parent="1" vertex="1">
          <mxGeometry x="418.72" y="2780" width="86" height="30" as="geometry" />
        </mxCell>
        <mxCell id="CXB07NSwBX4VoINEI6L7-58" value="&amp;lt;&amp;lt;include&amp;gt;&amp;gt;" style="edgeStyle=none;html=1;endArrow=open;verticalAlign=bottom;dashed=1;labelBackgroundColor=none;rounded=0;exitX=1;exitY=0.5;exitDx=0;exitDy=0;entryX=0;entryY=0.5;entryDx=0;entryDy=0;" parent="1" source="CXB07NSwBX4VoINEI6L7-38" target="CXB07NSwBX4VoINEI6L7-57" edge="1">
          <mxGeometry width="160" relative="1" as="geometry">
            <mxPoint x="513.6" y="2880" as="sourcePoint" />
            <mxPoint x="673.6" y="2880" as="targetPoint" />
          </mxGeometry>
        </mxCell>
        <mxCell id="CXB07NSwBX4VoINEI6L7-59" value="修改任务" style="ellipse;whiteSpace=wrap;html=1;" parent="1" vertex="1">
          <mxGeometry x="418.72" y="2830" width="86" height="30" as="geometry" />
        </mxCell>
        <mxCell id="CXB07NSwBX4VoINEI6L7-60" value="查询任务" style="ellipse;whiteSpace=wrap;html=1;" parent="1" vertex="1">
          <mxGeometry x="418.72" y="2880" width="86" height="30" as="geometry" />
        </mxCell>
        <mxCell id="CXB07NSwBX4VoINEI6L7-61" value="&amp;lt;&amp;lt;include&amp;gt;&amp;gt;" style="edgeStyle=none;html=1;endArrow=open;verticalAlign=bottom;dashed=1;labelBackgroundColor=none;rounded=0;exitX=1;exitY=0.5;exitDx=0;exitDy=0;entryX=0;entryY=0.5;entryDx=0;entryDy=0;" parent="1" source="CXB07NSwBX4VoINEI6L7-38" target="CXB07NSwBX4VoINEI6L7-59" edge="1">
          <mxGeometry width="160" relative="1" as="geometry">
            <mxPoint x="513.6" y="2950" as="sourcePoint" />
            <mxPoint x="673.6" y="2950" as="targetPoint" />
          </mxGeometry>
        </mxCell>
        <mxCell id="CXB07NSwBX4VoINEI6L7-62" value="&amp;lt;&amp;lt;include&amp;gt;&amp;gt;" style="edgeStyle=none;html=1;endArrow=open;verticalAlign=bottom;dashed=1;labelBackgroundColor=none;rounded=0;exitX=1;exitY=0.5;exitDx=0;exitDy=0;entryX=0;entryY=0.5;entryDx=0;entryDy=0;" parent="1" source="CXB07NSwBX4VoINEI6L7-38" target="CXB07NSwBX4VoINEI6L7-60" edge="1">
          <mxGeometry width="160" relative="1" as="geometry">
            <mxPoint x="513.6" y="2950" as="sourcePoint" />
            <mxPoint x="673.6" y="2950" as="targetPoint" />
          </mxGeometry>
        </mxCell>
        <mxCell id="CXB07NSwBX4VoINEI6L7-63" value="用户任务异常处理" style="ellipse;whiteSpace=wrap;html=1;" parent="1" vertex="1">
          <mxGeometry x="403.6" y="2930" width="120" height="30" as="geometry" />
        </mxCell>
        <mxCell id="CXB07NSwBX4VoINEI6L7-64" value="&amp;lt;&amp;lt;include&amp;gt;&amp;gt;" style="edgeStyle=none;html=1;endArrow=open;verticalAlign=bottom;dashed=1;labelBackgroundColor=none;rounded=0;exitX=1;exitY=0.5;exitDx=0;exitDy=0;entryX=0;entryY=0.5;entryDx=0;entryDy=0;" parent="1" source="CXB07NSwBX4VoINEI6L7-63" target="CXB07NSwBX4VoINEI6L7-43" edge="1">
          <mxGeometry width="160" relative="1" as="geometry">
            <mxPoint x="653.6" y="2850" as="sourcePoint" />
            <mxPoint x="633.6" y="2900" as="targetPoint" />
          </mxGeometry>
        </mxCell>
        <mxCell id="CXB07NSwBX4VoINEI6L7-65" value="&amp;lt;&amp;lt;include&amp;gt;&amp;gt;" style="edgeStyle=none;html=1;endArrow=open;verticalAlign=bottom;dashed=1;labelBackgroundColor=none;rounded=0;exitX=1;exitY=0.5;exitDx=0;exitDy=0;entryX=0;entryY=0.5;entryDx=0;entryDy=0;" parent="1" source="CXB07NSwBX4VoINEI6L7-63" target="CXB07NSwBX4VoINEI6L7-44" edge="1">
          <mxGeometry width="160" relative="1" as="geometry">
            <mxPoint x="653.6" y="2850" as="sourcePoint" />
            <mxPoint x="813.6" y="2850" as="targetPoint" />
          </mxGeometry>
        </mxCell>
        <mxCell id="CXB07NSwBX4VoINEI6L7-66" value="展示异常打卡、用户反馈&lt;br&gt;（无法识别）" style="ellipse;whiteSpace=wrap;html=1;" parent="1" vertex="1">
          <mxGeometry x="643.36" y="2810" width="147.5" height="100" as="geometry" />
        </mxCell>
        <mxCell id="CXB07NSwBX4VoINEI6L7-67" value="&amp;lt;&amp;lt;include&amp;gt;&amp;gt;" style="edgeStyle=none;html=1;endArrow=open;verticalAlign=bottom;dashed=1;labelBackgroundColor=none;rounded=0;exitX=1;exitY=0.5;exitDx=0;exitDy=0;entryX=0;entryY=0.5;entryDx=0;entryDy=0;" parent="1" source="CXB07NSwBX4VoINEI6L7-63" target="CXB07NSwBX4VoINEI6L7-66" edge="1">
          <mxGeometry width="160" relative="1" as="geometry">
            <mxPoint x="653.6" y="2770" as="sourcePoint" />
            <mxPoint x="813.6" y="2770" as="targetPoint" />
          </mxGeometry>
        </mxCell>
        <mxCell id="CXB07NSwBX4VoINEI6L7-84" value="&amp;lt;&amp;lt;include&amp;gt;&amp;gt;" style="edgeStyle=none;html=1;endArrow=open;verticalAlign=bottom;dashed=1;labelBackgroundColor=none;rounded=0;entryX=1;entryY=0.5;entryDx=0;entryDy=0;exitX=0;exitY=0.5;exitDx=0;exitDy=0;" parent="1" source="j4GF3NeZpC48HNPRZgc2-84" target="j4GF3NeZpC48HNPRZgc2-6" edge="1">
          <mxGeometry width="160" relative="1" as="geometry">
            <mxPoint x="1094" y="1460.48" as="sourcePoint" />
            <mxPoint x="964" y="1420.48" as="targetPoint" />
            <Array as="points">
              <mxPoint x="674" y="1355" />
            </Array>
          </mxGeometry>
        </mxCell>
        <mxCell id="CXB07NSwBX4VoINEI6L7-86" value="进入个人" style="ellipse;whiteSpace=wrap;html=1;" parent="1" vertex="1">
          <mxGeometry x="162.64" y="679" width="87" height="30" as="geometry" />
        </mxCell>
        <mxCell id="CXB07NSwBX4VoINEI6L7-89" value="管理员论坛操作" style="ellipse;whiteSpace=wrap;html=1;" parent="1" vertex="1">
          <mxGeometry x="169.86999999999998" y="2160" width="103" height="30" as="geometry" />
        </mxCell>
        <mxCell id="CXB07NSwBX4VoINEI6L7-92" value="发布帖子" style="ellipse;whiteSpace=wrap;html=1;" parent="1" vertex="1">
          <mxGeometry x="660.63" y="2020" width="87" height="30" as="geometry" />
        </mxCell>
        <mxCell id="CXB07NSwBX4VoINEI6L7-97" value="帖子操作" style="ellipse;whiteSpace=wrap;html=1;" parent="1" vertex="1">
          <mxGeometry x="338.87" y="2080" width="87" height="30" as="geometry" />
        </mxCell>
        <mxCell id="CXB07NSwBX4VoINEI6L7-99" value="评论区操作" style="ellipse;whiteSpace=wrap;html=1;" parent="1" vertex="1">
          <mxGeometry x="338.87" y="2245" width="87" height="30" as="geometry" />
        </mxCell>
        <mxCell id="CXB07NSwBX4VoINEI6L7-100" value="&amp;lt;&amp;lt;include&amp;gt;&amp;gt;" style="edgeStyle=none;html=1;endArrow=open;verticalAlign=bottom;dashed=1;labelBackgroundColor=none;rounded=0;exitX=1;exitY=0.5;exitDx=0;exitDy=0;entryX=0;entryY=0.5;entryDx=0;entryDy=0;" parent="1" source="CXB07NSwBX4VoINEI6L7-89" target="CXB07NSwBX4VoINEI6L7-97" edge="1">
          <mxGeometry width="160" relative="1" as="geometry">
            <mxPoint x="465.87" y="2015" as="sourcePoint" />
            <mxPoint x="625.87" y="2015" as="targetPoint" />
          </mxGeometry>
        </mxCell>
        <mxCell id="CXB07NSwBX4VoINEI6L7-101" value="&amp;lt;&amp;lt;include&amp;gt;&amp;gt;" style="edgeStyle=none;html=1;endArrow=open;verticalAlign=bottom;dashed=1;labelBackgroundColor=none;rounded=0;exitX=1;exitY=0.5;exitDx=0;exitDy=0;entryX=0;entryY=0.5;entryDx=0;entryDy=0;" parent="1" source="CXB07NSwBX4VoINEI6L7-89" target="CXB07NSwBX4VoINEI6L7-99" edge="1">
          <mxGeometry width="160" relative="1" as="geometry">
            <mxPoint x="465.87" y="2015" as="sourcePoint" />
            <mxPoint x="625.87" y="2015" as="targetPoint" />
          </mxGeometry>
        </mxCell>
        <mxCell id="CXB07NSwBX4VoINEI6L7-103" value="删除帖子" style="ellipse;whiteSpace=wrap;html=1;" parent="1" vertex="1">
          <mxGeometry x="660.63" y="2060" width="87" height="30" as="geometry" />
        </mxCell>
        <mxCell id="CXB07NSwBX4VoINEI6L7-104" value="查询帖子" style="ellipse;whiteSpace=wrap;html=1;" parent="1" vertex="1">
          <mxGeometry x="660.63" y="2100" width="87" height="30" as="geometry" />
        </mxCell>
        <mxCell id="CXB07NSwBX4VoINEI6L7-105" value="修改帖子" style="ellipse;whiteSpace=wrap;html=1;" parent="1" vertex="1">
          <mxGeometry x="660.63" y="2140" width="87" height="30" as="geometry" />
        </mxCell>
        <mxCell id="CXB07NSwBX4VoINEI6L7-106" value="&amp;lt;&amp;lt;include&amp;gt;&amp;gt;" style="edgeStyle=none;html=1;endArrow=open;verticalAlign=bottom;dashed=1;labelBackgroundColor=none;rounded=0;exitX=1;exitY=0.5;exitDx=0;exitDy=0;entryX=0;entryY=0.5;entryDx=0;entryDy=0;" parent="1" source="CXB07NSwBX4VoINEI6L7-97" target="CXB07NSwBX4VoINEI6L7-92" edge="1">
          <mxGeometry width="160" relative="1" as="geometry">
            <mxPoint x="465.87" y="2115" as="sourcePoint" />
            <mxPoint x="625.87" y="2115" as="targetPoint" />
          </mxGeometry>
        </mxCell>
        <mxCell id="CXB07NSwBX4VoINEI6L7-107" value="&amp;lt;&amp;lt;include&amp;gt;&amp;gt;" style="edgeStyle=none;html=1;endArrow=open;verticalAlign=bottom;dashed=1;labelBackgroundColor=none;rounded=0;exitX=1;exitY=0.5;exitDx=0;exitDy=0;entryX=0;entryY=0.5;entryDx=0;entryDy=0;" parent="1" source="CXB07NSwBX4VoINEI6L7-97" target="CXB07NSwBX4VoINEI6L7-103" edge="1">
          <mxGeometry width="160" relative="1" as="geometry">
            <mxPoint x="465.87" y="2115" as="sourcePoint" />
            <mxPoint x="625.87" y="2115" as="targetPoint" />
          </mxGeometry>
        </mxCell>
        <mxCell id="CXB07NSwBX4VoINEI6L7-108" value="&amp;lt;&amp;lt;include&amp;gt;&amp;gt;" style="edgeStyle=none;html=1;endArrow=open;verticalAlign=bottom;dashed=1;labelBackgroundColor=none;rounded=0;exitX=1;exitY=0.5;exitDx=0;exitDy=0;entryX=0;entryY=0.5;entryDx=0;entryDy=0;" parent="1" source="CXB07NSwBX4VoINEI6L7-97" target="CXB07NSwBX4VoINEI6L7-104" edge="1">
          <mxGeometry width="160" relative="1" as="geometry">
            <mxPoint x="465.87" y="2115" as="sourcePoint" />
            <mxPoint x="625.87" y="2115" as="targetPoint" />
          </mxGeometry>
        </mxCell>
        <mxCell id="CXB07NSwBX4VoINEI6L7-109" value="&amp;lt;&amp;lt;include&amp;gt;&amp;gt;" style="edgeStyle=none;html=1;endArrow=open;verticalAlign=bottom;dashed=1;labelBackgroundColor=none;rounded=0;exitX=1;exitY=0.5;exitDx=0;exitDy=0;entryX=0;entryY=0.5;entryDx=0;entryDy=0;" parent="1" source="CXB07NSwBX4VoINEI6L7-97" target="CXB07NSwBX4VoINEI6L7-105" edge="1">
          <mxGeometry width="160" relative="1" as="geometry">
            <mxPoint x="465.87" y="2115" as="sourcePoint" />
            <mxPoint x="625.87" y="2115" as="targetPoint" />
          </mxGeometry>
        </mxCell>
        <mxCell id="CXB07NSwBX4VoINEI6L7-115" value="删除评论、回复" style="ellipse;whiteSpace=wrap;html=1;" parent="1" vertex="1">
          <mxGeometry x="665.87" y="2215" width="87" height="30" as="geometry" />
        </mxCell>
        <mxCell id="CXB07NSwBX4VoINEI6L7-116" value="查询评论、回复" style="ellipse;whiteSpace=wrap;html=1;" parent="1" vertex="1">
          <mxGeometry x="665.87" y="2275" width="87" height="30" as="geometry" />
        </mxCell>
        <mxCell id="CXB07NSwBX4VoINEI6L7-118" value="&amp;lt;&amp;lt;include&amp;gt;&amp;gt;" style="edgeStyle=none;html=1;endArrow=open;verticalAlign=bottom;dashed=1;labelBackgroundColor=none;rounded=0;exitX=1;exitY=0.5;exitDx=0;exitDy=0;entryX=0;entryY=0.5;entryDx=0;entryDy=0;" parent="1" source="CXB07NSwBX4VoINEI6L7-99" target="CXB07NSwBX4VoINEI6L7-115" edge="1">
          <mxGeometry width="160" relative="1" as="geometry">
            <mxPoint x="465.87" y="2315" as="sourcePoint" />
            <mxPoint x="625.87" y="2315" as="targetPoint" />
          </mxGeometry>
        </mxCell>
        <mxCell id="CXB07NSwBX4VoINEI6L7-119" value="&amp;lt;&amp;lt;include&amp;gt;&amp;gt;" style="edgeStyle=none;html=1;endArrow=open;verticalAlign=bottom;dashed=1;labelBackgroundColor=none;rounded=0;exitX=1;exitY=0.5;exitDx=0;exitDy=0;entryX=0;entryY=0.5;entryDx=0;entryDy=0;" parent="1" source="CXB07NSwBX4VoINEI6L7-99" target="CXB07NSwBX4VoINEI6L7-116" edge="1">
          <mxGeometry width="160" relative="1" as="geometry">
            <mxPoint x="465.87" y="2315" as="sourcePoint" />
            <mxPoint x="625.87" y="2315" as="targetPoint" />
          </mxGeometry>
        </mxCell>
        <mxCell id="CXB07NSwBX4VoINEI6L7-120" style="edgeStyle=orthogonalEdgeStyle;rounded=0;orthogonalLoop=1;jettySize=auto;html=1;exitX=0.5;exitY=1;exitDx=0;exitDy=0;" parent="1" source="j4GF3NeZpC48HNPRZgc2-114" target="j4GF3NeZpC48HNPRZgc2-114" edge="1">
          <mxGeometry relative="1" as="geometry" />
        </mxCell>
        <mxCell id="CXB07NSwBX4VoINEI6L7-121" value="查看个人信息" style="ellipse;whiteSpace=wrap;html=1;fillColor=#FFFF66;" parent="1" vertex="1">
          <mxGeometry x="402.64" y="639" width="87" height="30" as="geometry" />
        </mxCell>
        <mxCell id="CXB07NSwBX4VoINEI6L7-124" value="消息模块" style="ellipse;whiteSpace=wrap;html=1;" parent="1" vertex="1">
          <mxGeometry x="162.64" y="1020" width="87" height="30" as="geometry" />
        </mxCell>
        <mxCell id="CXB07NSwBX4VoINEI6L7-125" value="&amp;lt;&amp;lt;include&amp;gt;&amp;gt;" style="edgeStyle=none;html=1;endArrow=open;verticalAlign=bottom;dashed=1;labelBackgroundColor=none;rounded=0;exitX=1;exitY=0.5;exitDx=0;exitDy=0;entryX=0;entryY=0.5;entryDx=0;entryDy=0;" parent="1" source="CXB07NSwBX4VoINEI6L7-86" target="CXB07NSwBX4VoINEI6L7-121" edge="1">
          <mxGeometry width="160" relative="1" as="geometry">
            <mxPoint x="522.64" y="489" as="sourcePoint" />
            <mxPoint x="682.64" y="489" as="targetPoint" />
          </mxGeometry>
        </mxCell>
        <mxCell id="CXB07NSwBX4VoINEI6L7-128" value="任务消息通知" style="ellipse;whiteSpace=wrap;html=1;" parent="1" vertex="1">
          <mxGeometry x="411.15" y="990" width="87" height="30" as="geometry" />
        </mxCell>
        <mxCell id="CXB07NSwBX4VoINEI6L7-130" value="删除广告" style="ellipse;whiteSpace=wrap;html=1;" parent="1" vertex="1">
          <mxGeometry x="421.67" y="3212" width="106" height="30" as="geometry" />
        </mxCell>
        <mxCell id="CXB07NSwBX4VoINEI6L7-131" value="修改广告" style="ellipse;whiteSpace=wrap;html=1;" parent="1" vertex="1">
          <mxGeometry x="421.67" y="3262" width="106" height="30" as="geometry" />
        </mxCell>
        <mxCell id="CXB07NSwBX4VoINEI6L7-132" value="查询广告" style="ellipse;whiteSpace=wrap;html=1;" parent="1" vertex="1">
          <mxGeometry x="421.67" y="3312" width="106" height="30" as="geometry" />
        </mxCell>
        <mxCell id="CXB07NSwBX4VoINEI6L7-133" value="&amp;lt;&amp;lt;include&amp;gt;&amp;gt;" style="edgeStyle=none;html=1;endArrow=open;verticalAlign=bottom;dashed=1;labelBackgroundColor=none;rounded=0;exitX=1;exitY=0.5;exitDx=0;exitDy=0;entryX=0;entryY=0.5;entryDx=0;entryDy=0;" parent="1" source="CXB07NSwBX4VoINEI6L7-13" target="CXB07NSwBX4VoINEI6L7-130" edge="1">
          <mxGeometry width="160" relative="1" as="geometry">
            <mxPoint x="539.6700000000001" y="2952" as="sourcePoint" />
            <mxPoint x="699.6700000000001" y="2952" as="targetPoint" />
          </mxGeometry>
        </mxCell>
        <mxCell id="CXB07NSwBX4VoINEI6L7-134" value="&amp;lt;&amp;lt;include&amp;gt;&amp;gt;" style="edgeStyle=none;html=1;endArrow=open;verticalAlign=bottom;dashed=1;labelBackgroundColor=none;rounded=0;exitX=1;exitY=0.5;exitDx=0;exitDy=0;entryX=0;entryY=0.5;entryDx=0;entryDy=0;" parent="1" source="CXB07NSwBX4VoINEI6L7-13" target="CXB07NSwBX4VoINEI6L7-131" edge="1">
          <mxGeometry width="160" relative="1" as="geometry">
            <mxPoint x="539.6700000000001" y="2952" as="sourcePoint" />
            <mxPoint x="699.6700000000001" y="2952" as="targetPoint" />
          </mxGeometry>
        </mxCell>
        <mxCell id="CXB07NSwBX4VoINEI6L7-135" value="&amp;lt;&amp;lt;include&amp;gt;&amp;gt;" style="edgeStyle=none;html=1;endArrow=open;verticalAlign=bottom;dashed=1;labelBackgroundColor=none;rounded=0;exitX=1;exitY=0.5;exitDx=0;exitDy=0;entryX=0;entryY=0.5;entryDx=0;entryDy=0;" parent="1" source="CXB07NSwBX4VoINEI6L7-13" target="CXB07NSwBX4VoINEI6L7-132" edge="1">
          <mxGeometry width="160" relative="1" as="geometry">
            <mxPoint x="539.6700000000001" y="2952" as="sourcePoint" />
            <mxPoint x="699.6700000000001" y="2952" as="targetPoint" />
          </mxGeometry>
        </mxCell>
        <mxCell id="CXB07NSwBX4VoINEI6L7-136" value="论坛消息通知" style="ellipse;whiteSpace=wrap;html=1;" parent="1" vertex="1">
          <mxGeometry x="411.15" y="1060" width="87" height="30" as="geometry" />
        </mxCell>
        <mxCell id="CXB07NSwBX4VoINEI6L7-137" value="消息回复通知" style="ellipse;whiteSpace=wrap;html=1;" parent="1" vertex="1">
          <mxGeometry x="625.38" y="1060" width="87" height="30" as="geometry" />
        </mxCell>
        <mxCell id="CXB07NSwBX4VoINEI6L7-138" value="&amp;lt;&amp;lt;include&amp;gt;&amp;gt;" style="edgeStyle=none;html=1;endArrow=open;verticalAlign=bottom;dashed=1;labelBackgroundColor=none;rounded=0;exitX=1;exitY=0.5;exitDx=0;exitDy=0;entryX=0;entryY=0.5;entryDx=0;entryDy=0;" parent="1" source="CXB07NSwBX4VoINEI6L7-136" target="CXB07NSwBX4VoINEI6L7-137" edge="1">
          <mxGeometry width="160" relative="1" as="geometry">
            <mxPoint x="656.64" y="1044.33" as="sourcePoint" />
            <mxPoint x="816.64" y="1044.33" as="targetPoint" />
          </mxGeometry>
        </mxCell>
        <mxCell id="CXB07NSwBX4VoINEI6L7-139" value="&amp;lt;&amp;lt;include&amp;gt;&amp;gt;" style="edgeStyle=none;html=1;endArrow=open;verticalAlign=bottom;dashed=1;labelBackgroundColor=none;rounded=0;exitX=1;exitY=0.5;exitDx=0;exitDy=0;entryX=0;entryY=0.5;entryDx=0;entryDy=0;" parent="1" source="CXB07NSwBX4VoINEI6L7-124" target="CXB07NSwBX4VoINEI6L7-136" edge="1">
          <mxGeometry width="160" relative="1" as="geometry">
            <mxPoint x="662.64" y="960" as="sourcePoint" />
            <mxPoint x="822.64" y="960" as="targetPoint" />
          </mxGeometry>
        </mxCell>
        <mxCell id="CXB07NSwBX4VoINEI6L7-140" value="&amp;lt;&amp;lt;include&amp;gt;&amp;gt;" style="edgeStyle=none;html=1;endArrow=open;verticalAlign=bottom;dashed=1;labelBackgroundColor=none;rounded=0;exitX=1;exitY=0.5;exitDx=0;exitDy=0;entryX=0;entryY=0.5;entryDx=0;entryDy=0;" parent="1" source="CXB07NSwBX4VoINEI6L7-124" target="CXB07NSwBX4VoINEI6L7-128" edge="1">
          <mxGeometry width="160" relative="1" as="geometry">
            <mxPoint x="662.64" y="960" as="sourcePoint" />
            <mxPoint x="822.64" y="960" as="targetPoint" />
          </mxGeometry>
        </mxCell>
        <mxCell id="CXB07NSwBX4VoINEI6L7-142" value="查看收藏" style="ellipse;whiteSpace=wrap;html=1;fillColor=#FFFF66;" parent="1" vertex="1">
          <mxGeometry x="402.26" y="705" width="87" height="30" as="geometry" />
        </mxCell>
        <mxCell id="CXB07NSwBX4VoINEI6L7-143" value="&amp;lt;&amp;lt;include&amp;gt;&amp;gt;" style="edgeStyle=none;html=1;endArrow=open;verticalAlign=bottom;dashed=1;labelBackgroundColor=none;rounded=0;exitX=1;exitY=0.5;exitDx=0;exitDy=0;entryX=0;entryY=0.5;entryDx=0;entryDy=0;" parent="1" source="CXB07NSwBX4VoINEI6L7-86" target="CXB07NSwBX4VoINEI6L7-142" edge="1">
          <mxGeometry width="160" relative="1" as="geometry">
            <mxPoint x="662.64" y="729" as="sourcePoint" />
            <mxPoint x="822.64" y="729" as="targetPoint" />
          </mxGeometry>
        </mxCell>
        <mxCell id="CXB07NSwBX4VoINEI6L7-145" value="操作帖子、评论" style="ellipse;whiteSpace=wrap;html=1;fillColor=#FFFFFF;" parent="1" vertex="1">
          <mxGeometry x="676.26" y="832.5" width="101" height="31" as="geometry" />
        </mxCell>
        <mxCell id="CXB07NSwBX4VoINEI6L7-146" value="&amp;lt;&amp;lt;include&amp;gt;&amp;gt;" style="edgeStyle=none;html=1;endArrow=open;verticalAlign=bottom;dashed=1;labelBackgroundColor=none;rounded=0;exitX=1;exitY=0.5;exitDx=0;exitDy=0;entryX=0;entryY=0.5;entryDx=0;entryDy=0;" parent="1" source="CXB07NSwBX4VoINEI6L7-86" target="VTZD5A776n4PD1zNWtx2-38" edge="1">
          <mxGeometry width="160" relative="1" as="geometry">
            <mxPoint x="572.64" y="659" as="sourcePoint" />
            <mxPoint x="732.64" y="659" as="targetPoint" />
          </mxGeometry>
        </mxCell>
        <mxCell id="CXB07NSwBX4VoINEI6L7-148" value="编辑帖子" style="ellipse;whiteSpace=wrap;html=1;" parent="1" vertex="1">
          <mxGeometry x="906.39" y="766" width="87" height="30" as="geometry" />
        </mxCell>
        <mxCell id="CXB07NSwBX4VoINEI6L7-149" value="删除帖子" style="ellipse;whiteSpace=wrap;html=1;fillColor=#FFFF66;" parent="1" vertex="1">
          <mxGeometry x="906.39" y="805" width="87" height="30" as="geometry" />
        </mxCell>
        <mxCell id="CXB07NSwBX4VoINEI6L7-151" value="删除评论、回复" style="ellipse;whiteSpace=wrap;html=1;fillColor=#FFFF66;" parent="1" vertex="1">
          <mxGeometry x="890.75" y="859" width="125.5" height="30" as="geometry" />
        </mxCell>
        <mxCell id="CXB07NSwBX4VoINEI6L7-154" value="去除收藏" style="ellipse;whiteSpace=wrap;html=1;fillColor=#FFFF66;" parent="1" vertex="1">
          <mxGeometry x="677.36" y="699" width="87" height="30" as="geometry" />
        </mxCell>
        <mxCell id="CXB07NSwBX4VoINEI6L7-156" value="当前任务点导航" style="ellipse;whiteSpace=wrap;html=1;fillColor=#99FFFF;" parent="1" vertex="1">
          <mxGeometry x="625.38" y="1210" width="157.5" height="40" as="geometry" />
        </mxCell>
        <mxCell id="CXB07NSwBX4VoINEI6L7-157" value="&amp;lt;&amp;lt;include&amp;gt;&amp;gt;" style="edgeStyle=none;html=1;endArrow=open;verticalAlign=bottom;dashed=1;labelBackgroundColor=none;rounded=0;exitX=1;exitY=0.5;exitDx=0;exitDy=0;entryX=0;entryY=0.5;entryDx=0;entryDy=0;" parent="1" source="j4GF3NeZpC48HNPRZgc2-14" target="CXB07NSwBX4VoINEI6L7-156" edge="1">
          <mxGeometry width="160" relative="1" as="geometry">
            <mxPoint x="670" y="1515" as="sourcePoint" />
            <mxPoint x="628.75" y="1205" as="targetPoint" />
          </mxGeometry>
        </mxCell>
        <mxCell id="CXB07NSwBX4VoINEI6L7-162" value="&amp;lt;&amp;lt;include&amp;gt;&amp;gt;" style="edgeStyle=none;html=1;endArrow=open;verticalAlign=bottom;dashed=1;labelBackgroundColor=none;rounded=0;exitX=1;exitY=0.5;exitDx=0;exitDy=0;entryX=0;entryY=0.5;entryDx=0;entryDy=0;" parent="1" source="CXB07NSwBX4VoINEI6L7-145" target="CXB07NSwBX4VoINEI6L7-148" edge="1">
          <mxGeometry width="160" relative="1" as="geometry">
            <mxPoint x="744.64" y="764" as="sourcePoint" />
            <mxPoint x="772.64" y="729" as="targetPoint" />
          </mxGeometry>
        </mxCell>
        <mxCell id="CXB07NSwBX4VoINEI6L7-163" value="&amp;lt;&amp;lt;include&amp;gt;&amp;gt;" style="edgeStyle=none;html=1;endArrow=open;verticalAlign=bottom;dashed=1;labelBackgroundColor=none;rounded=0;exitX=1;exitY=0.5;exitDx=0;exitDy=0;entryX=0;entryY=0.5;entryDx=0;entryDy=0;" parent="1" source="CXB07NSwBX4VoINEI6L7-145" target="CXB07NSwBX4VoINEI6L7-149" edge="1">
          <mxGeometry width="160" relative="1" as="geometry">
            <mxPoint x="744.64" y="764" as="sourcePoint" />
            <mxPoint x="772.64" y="729" as="targetPoint" />
          </mxGeometry>
        </mxCell>
        <mxCell id="CXB07NSwBX4VoINEI6L7-165" value="&amp;lt;&amp;lt;include&amp;gt;&amp;gt;" style="edgeStyle=none;html=1;endArrow=open;verticalAlign=bottom;dashed=1;labelBackgroundColor=none;rounded=0;exitX=1;exitY=0.5;exitDx=0;exitDy=0;entryX=0;entryY=0.5;entryDx=0;entryDy=0;" parent="1" source="CXB07NSwBX4VoINEI6L7-145" target="CXB07NSwBX4VoINEI6L7-151" edge="1">
          <mxGeometry width="160" relative="1" as="geometry">
            <mxPoint x="592.64" y="769" as="sourcePoint" />
            <mxPoint x="752.64" y="769" as="targetPoint" />
          </mxGeometry>
        </mxCell>
        <mxCell id="CXB07NSwBX4VoINEI6L7-166" value="&amp;lt;&amp;lt;include&amp;gt;&amp;gt;" style="edgeStyle=none;html=1;endArrow=open;verticalAlign=bottom;dashed=1;labelBackgroundColor=none;rounded=0;exitX=1;exitY=0.5;exitDx=0;exitDy=0;entryX=0;entryY=0.5;entryDx=0;entryDy=0;" parent="1" source="CXB07NSwBX4VoINEI6L7-142" target="CXB07NSwBX4VoINEI6L7-154" edge="1">
          <mxGeometry width="160" relative="1" as="geometry">
            <mxPoint x="592.64" y="769" as="sourcePoint" />
            <mxPoint x="752.64" y="769" as="targetPoint" />
          </mxGeometry>
        </mxCell>
        <mxCell id="CXB07NSwBX4VoINEI6L7-168" value="修改个人信息" style="ellipse;whiteSpace=wrap;html=1;fillColor=#FFFF66;" parent="1" vertex="1">
          <mxGeometry x="677.36" y="649" width="87" height="30" as="geometry" />
        </mxCell>
        <mxCell id="CXB07NSwBX4VoINEI6L7-169" value="&amp;lt;&amp;lt;include&amp;gt;&amp;gt;" style="edgeStyle=none;html=1;endArrow=open;verticalAlign=bottom;dashed=1;labelBackgroundColor=none;rounded=0;exitX=1;exitY=0.5;exitDx=0;exitDy=0;entryX=0;entryY=0.5;entryDx=0;entryDy=0;" parent="1" source="CXB07NSwBX4VoINEI6L7-121" target="CXB07NSwBX4VoINEI6L7-168" edge="1">
          <mxGeometry width="160" relative="1" as="geometry">
            <mxPoint x="692.64" y="709" as="sourcePoint" />
            <mxPoint x="852.64" y="709" as="targetPoint" />
          </mxGeometry>
        </mxCell>
        <mxCell id="CXB07NSwBX4VoINEI6L7-181" value="" style="edgeStyle=none;html=1;endArrow=none;verticalAlign=bottom;rounded=0;exitX=1;exitY=0.3333333333333333;exitDx=0;exitDy=0;exitPerimeter=0;entryX=0;entryY=0.5;entryDx=0;entryDy=0;" parent="1" source="j4GF3NeZpC48HNPRZgc2-1" target="j4GF3NeZpC48HNPRZgc2-26" edge="1">
          <mxGeometry width="160" relative="1" as="geometry">
            <mxPoint x="390" y="570" as="sourcePoint" />
            <mxPoint x="550" y="570" as="targetPoint" />
          </mxGeometry>
        </mxCell>
        <mxCell id="CXB07NSwBX4VoINEI6L7-182" value="" style="edgeStyle=none;html=1;endArrow=none;verticalAlign=bottom;rounded=0;exitX=0;exitY=0.5;exitDx=0;exitDy=0;entryX=1;entryY=0.3333333333333333;entryDx=0;entryDy=0;entryPerimeter=0;" parent="1" source="CXB07NSwBX4VoINEI6L7-86" target="j4GF3NeZpC48HNPRZgc2-1" edge="1">
          <mxGeometry width="160" relative="1" as="geometry">
            <mxPoint x="390" y="570" as="sourcePoint" />
            <mxPoint x="550" y="570" as="targetPoint" />
          </mxGeometry>
        </mxCell>
        <mxCell id="CXB07NSwBX4VoINEI6L7-183" value="" style="edgeStyle=none;html=1;endArrow=none;verticalAlign=bottom;rounded=0;exitX=1;exitY=0.3333333333333333;exitDx=0;exitDy=0;exitPerimeter=0;entryX=0;entryY=0.5;entryDx=0;entryDy=0;" parent="1" source="j4GF3NeZpC48HNPRZgc2-1" target="CXB07NSwBX4VoINEI6L7-124" edge="1">
          <mxGeometry width="160" relative="1" as="geometry">
            <mxPoint x="390" y="940" as="sourcePoint" />
            <mxPoint x="550" y="940" as="targetPoint" />
          </mxGeometry>
        </mxCell>
        <mxCell id="CXB07NSwBX4VoINEI6L7-184" value="" style="edgeStyle=none;html=1;endArrow=none;verticalAlign=bottom;rounded=0;exitX=1;exitY=0.3333333333333333;exitDx=0;exitDy=0;exitPerimeter=0;entryX=0;entryY=0.5;entryDx=0;entryDy=0;" parent="1" source="j4GF3NeZpC48HNPRZgc2-1" target="j4GF3NeZpC48HNPRZgc2-7" edge="1">
          <mxGeometry width="160" relative="1" as="geometry">
            <mxPoint x="370" y="1120" as="sourcePoint" />
            <mxPoint x="530" y="1120" as="targetPoint" />
          </mxGeometry>
        </mxCell>
        <mxCell id="CXB07NSwBX4VoINEI6L7-185" value="" style="edgeStyle=none;html=1;endArrow=none;verticalAlign=bottom;rounded=0;exitX=0;exitY=0.5;exitDx=0;exitDy=0;entryX=1;entryY=0.3333333333333333;entryDx=0;entryDy=0;entryPerimeter=0;" parent="1" source="j4GF3NeZpC48HNPRZgc2-4" target="j4GF3NeZpC48HNPRZgc2-1" edge="1">
          <mxGeometry width="160" relative="1" as="geometry">
            <mxPoint x="270" y="360" as="sourcePoint" />
            <mxPoint x="430" y="360" as="targetPoint" />
          </mxGeometry>
        </mxCell>
        <mxCell id="CXB07NSwBX4VoINEI6L7-187" value="展示首页" style="ellipse;whiteSpace=wrap;html=1;fillColor=#97D077;" parent="1" vertex="1">
          <mxGeometry x="255.96000000000004" y="-62.329999999999984" width="87" height="30" as="geometry" />
        </mxCell>
        <mxCell id="CXB07NSwBX4VoINEI6L7-188" value="" style="edgeStyle=none;html=1;endArrow=none;verticalAlign=bottom;rounded=0;exitX=0.5;exitY=1;exitDx=0;exitDy=0;entryX=0.5;entryY=0;entryDx=0;entryDy=0;" parent="1" source="j4GF3NeZpC48HNPRZgc2-4" target="CXB07NSwBX4VoINEI6L7-187" edge="1">
          <mxGeometry width="160" relative="1" as="geometry">
            <mxPoint x="203.23000000000002" y="-62.33000000000001" as="sourcePoint" />
            <mxPoint x="363.23" y="-62.33000000000001" as="targetPoint" />
          </mxGeometry>
        </mxCell>
        <mxCell id="CXB07NSwBX4VoINEI6L7-189" value="账号登录" style="ellipse;whiteSpace=wrap;html=1;fillColor=#97D077;" parent="1" vertex="1">
          <mxGeometry x="309.24" y="-260" width="87" height="30" as="geometry" />
        </mxCell>
        <mxCell id="CXB07NSwBX4VoINEI6L7-190" value="短信登录" style="ellipse;whiteSpace=wrap;html=1;fillColor=#97D077;" parent="1" vertex="1">
          <mxGeometry x="309.24" y="-350" width="87" height="30" as="geometry" />
        </mxCell>
        <mxCell id="CXB07NSwBX4VoINEI6L7-191" value="" style="edgeStyle=none;html=1;endArrow=block;endFill=0;endSize=12;verticalAlign=bottom;rounded=0;entryX=1;entryY=0.5;entryDx=0;entryDy=0;exitX=0;exitY=0.5;exitDx=0;exitDy=0;" parent="1" source="CXB07NSwBX4VoINEI6L7-190" target="j4GF3NeZpC48HNPRZgc2-4" edge="1">
          <mxGeometry width="160" relative="1" as="geometry">
            <mxPoint x="433.23" y="-27.920000000000016" as="sourcePoint" />
            <mxPoint x="593.23" y="-27.920000000000016" as="targetPoint" />
          </mxGeometry>
        </mxCell>
        <mxCell id="CXB07NSwBX4VoINEI6L7-192" value="" style="edgeStyle=none;html=1;endArrow=block;endFill=0;endSize=12;verticalAlign=bottom;rounded=0;entryX=1;entryY=0.5;entryDx=0;entryDy=0;exitX=0;exitY=0.5;exitDx=0;exitDy=0;" parent="1" source="CXB07NSwBX4VoINEI6L7-189" target="j4GF3NeZpC48HNPRZgc2-4" edge="1">
          <mxGeometry width="160" relative="1" as="geometry">
            <mxPoint x="473.23" y="-42.329999999999984" as="sourcePoint" />
            <mxPoint x="633.23" y="-42.329999999999984" as="targetPoint" />
          </mxGeometry>
        </mxCell>
        <mxCell id="CXB07NSwBX4VoINEI6L7-194" value="学生" style="shape=umlActor;html=1;verticalLabelPosition=bottom;verticalAlign=top;align=center;" parent="1" vertex="1">
          <mxGeometry x="-150" y="915" width="30" height="60" as="geometry" />
        </mxCell>
        <mxCell id="CXB07NSwBX4VoINEI6L7-195" value="" style="edgeStyle=none;html=1;endArrow=block;endFill=0;endSize=12;verticalAlign=bottom;rounded=0;exitX=1;exitY=0.3333333333333333;exitDx=0;exitDy=0;exitPerimeter=0;entryX=0;entryY=1;entryDx=0;entryDy=0;entryPerimeter=0;" parent="1" source="CXB07NSwBX4VoINEI6L7-194" target="j4GF3NeZpC48HNPRZgc2-1" edge="1">
          <mxGeometry width="160" relative="1" as="geometry">
            <mxPoint x="-30" y="880" as="sourcePoint" />
            <mxPoint x="130" y="880" as="targetPoint" />
          </mxGeometry>
        </mxCell>
        <mxCell id="CXB07NSwBX4VoINEI6L7-196" value="校方" style="shape=umlActor;html=1;verticalLabelPosition=bottom;verticalAlign=top;align=center;" parent="1" vertex="1">
          <mxGeometry x="-150" y="2540" width="30" height="60" as="geometry" />
        </mxCell>
        <mxCell id="CXB07NSwBX4VoINEI6L7-197" value="" style="edgeStyle=none;html=1;endArrow=block;endFill=0;endSize=12;verticalAlign=bottom;rounded=0;exitX=1;exitY=0.3333333333333333;exitDx=0;exitDy=0;exitPerimeter=0;entryX=0;entryY=1;entryDx=0;entryDy=0;entryPerimeter=0;" parent="1" source="CXB07NSwBX4VoINEI6L7-196" target="j4GF3NeZpC48HNPRZgc2-130" edge="1">
          <mxGeometry width="160" relative="1" as="geometry">
            <mxPoint y="2500" as="sourcePoint" />
            <mxPoint x="160" y="2500" as="targetPoint" />
          </mxGeometry>
        </mxCell>
        <mxCell id="CXB07NSwBX4VoINEI6L7-198" value="输入账号" style="ellipse;whiteSpace=wrap;html=1;fillColor=#97D077;" parent="1" vertex="1">
          <mxGeometry x="492.87" y="-280" width="87" height="30" as="geometry" />
        </mxCell>
        <mxCell id="CXB07NSwBX4VoINEI6L7-199" value="输入密码" style="ellipse;whiteSpace=wrap;html=1;fillColor=#97D077;" parent="1" vertex="1">
          <mxGeometry x="492.87" y="-230" width="87" height="30" as="geometry" />
        </mxCell>
        <mxCell id="CXB07NSwBX4VoINEI6L7-200" value="&amp;lt;&amp;lt;include&amp;gt;&amp;gt;" style="edgeStyle=none;html=1;endArrow=open;verticalAlign=bottom;dashed=1;labelBackgroundColor=none;rounded=0;exitX=1;exitY=0.5;exitDx=0;exitDy=0;entryX=0;entryY=0.5;entryDx=0;entryDy=0;" parent="1" source="CXB07NSwBX4VoINEI6L7-189" target="CXB07NSwBX4VoINEI6L7-198" edge="1">
          <mxGeometry width="160" relative="1" as="geometry">
            <mxPoint x="413.23" y="-40" as="sourcePoint" />
            <mxPoint x="573.23" y="-40" as="targetPoint" />
          </mxGeometry>
        </mxCell>
        <mxCell id="CXB07NSwBX4VoINEI6L7-201" value="&amp;lt;&amp;lt;include&amp;gt;&amp;gt;" style="edgeStyle=none;html=1;endArrow=open;verticalAlign=bottom;dashed=1;labelBackgroundColor=none;rounded=0;exitX=1;exitY=0.5;exitDx=0;exitDy=0;entryX=0;entryY=0.5;entryDx=0;entryDy=0;" parent="1" source="CXB07NSwBX4VoINEI6L7-189" target="CXB07NSwBX4VoINEI6L7-199" edge="1">
          <mxGeometry width="160" relative="1" as="geometry">
            <mxPoint x="413.23" y="-40" as="sourcePoint" />
            <mxPoint x="573.23" y="-40" as="targetPoint" />
          </mxGeometry>
        </mxCell>
        <mxCell id="CXB07NSwBX4VoINEI6L7-203" value="&amp;lt;&amp;lt;include&amp;gt;&amp;gt;" style="edgeStyle=none;html=1;endArrow=open;verticalAlign=bottom;dashed=1;labelBackgroundColor=none;rounded=0;exitX=0.5;exitY=1;exitDx=0;exitDy=0;entryX=0.5;entryY=0;entryDx=0;entryDy=0;" parent="1" source="CXB07NSwBX4VoINEI6L7-187" target="j4GF3NeZpC48HNPRZgc2-6" edge="1">
          <mxGeometry x="-0.918" y="1" width="160" relative="1" as="geometry">
            <mxPoint x="340" y="110" as="sourcePoint" />
            <mxPoint x="500" y="110" as="targetPoint" />
            <Array as="points">
              <mxPoint x="300" y="1340" />
            </Array>
            <mxPoint as="offset" />
          </mxGeometry>
        </mxCell>
        <mxCell id="CXB07NSwBX4VoINEI6L7-206" value="" style="edgeStyle=none;html=1;endArrow=none;verticalAlign=bottom;rounded=0;entryX=1;entryY=0.3333333333333333;entryDx=0;entryDy=0;entryPerimeter=0;exitX=0;exitY=0.5;exitDx=0;exitDy=0;" parent="1" source="CXB07NSwBX4VoINEI6L7-33" target="j4GF3NeZpC48HNPRZgc2-130" edge="1">
          <mxGeometry width="160" relative="1" as="geometry">
            <mxPoint x="760" y="2310" as="sourcePoint" />
            <mxPoint x="920" y="2310" as="targetPoint" />
          </mxGeometry>
        </mxCell>
        <mxCell id="CXB07NSwBX4VoINEI6L7-207" value="" style="edgeStyle=none;html=1;endArrow=none;verticalAlign=bottom;rounded=0;entryX=0;entryY=0.5;entryDx=0;entryDy=0;exitX=1;exitY=0.3333333333333333;exitDx=0;exitDy=0;exitPerimeter=0;" parent="1" source="j4GF3NeZpC48HNPRZgc2-130" target="CXB07NSwBX4VoINEI6L7-89" edge="1">
          <mxGeometry width="160" relative="1" as="geometry">
            <mxPoint x="760" y="2310" as="sourcePoint" />
            <mxPoint x="920" y="2310" as="targetPoint" />
          </mxGeometry>
        </mxCell>
        <mxCell id="CXB07NSwBX4VoINEI6L7-208" value="" style="edgeStyle=none;html=1;endArrow=none;verticalAlign=bottom;rounded=0;entryX=1;entryY=0.3333333333333333;entryDx=0;entryDy=0;entryPerimeter=0;exitX=0;exitY=0.5;exitDx=0;exitDy=0;" parent="1" source="CXB07NSwBX4VoINEI6L7-11" target="j4GF3NeZpC48HNPRZgc2-130" edge="1">
          <mxGeometry width="160" relative="1" as="geometry">
            <mxPoint x="760" y="2310" as="sourcePoint" />
            <mxPoint x="-10" y="2490" as="targetPoint" />
          </mxGeometry>
        </mxCell>
        <mxCell id="CXB07NSwBX4VoINEI6L7-209" value="" style="edgeStyle=none;html=1;endArrow=none;verticalAlign=bottom;rounded=0;entryX=1;entryY=0.3333333333333333;entryDx=0;entryDy=0;entryPerimeter=0;exitX=0;exitY=0.5;exitDx=0;exitDy=0;" parent="1" source="CXB07NSwBX4VoINEI6L7-38" target="j4GF3NeZpC48HNPRZgc2-130" edge="1">
          <mxGeometry width="160" relative="1" as="geometry">
            <mxPoint x="320" y="2420" as="sourcePoint" />
            <mxPoint x="480" y="2420" as="targetPoint" />
          </mxGeometry>
        </mxCell>
        <mxCell id="CXB07NSwBX4VoINEI6L7-210" value="" style="edgeStyle=none;html=1;endArrow=none;verticalAlign=bottom;rounded=0;entryX=1;entryY=0.3333333333333333;entryDx=0;entryDy=0;entryPerimeter=0;exitX=0;exitY=0.5;exitDx=0;exitDy=0;" parent="1" source="CXB07NSwBX4VoINEI6L7-13" target="j4GF3NeZpC48HNPRZgc2-130" edge="1">
          <mxGeometry width="160" relative="1" as="geometry">
            <mxPoint x="-160" y="2635" as="sourcePoint" />
            <mxPoint y="2635" as="targetPoint" />
          </mxGeometry>
        </mxCell>
        <mxCell id="CXB07NSwBX4VoINEI6L7-229" value="&amp;lt;&amp;lt;extend&amp;gt;&amp;gt;" style="edgeStyle=none;html=1;startArrow=open;endArrow=none;startSize=12;verticalAlign=bottom;dashed=1;labelBackgroundColor=none;rounded=0;entryX=0;entryY=0.5;entryDx=0;entryDy=0;exitX=1;exitY=0.5;exitDx=0;exitDy=0;" parent="1" source="CXB07NSwBX4VoINEI6L7-121" target="j4GF3NeZpC48HNPRZgc2-47" edge="1">
          <mxGeometry x="0.3049" y="5" width="160" relative="1" as="geometry">
            <mxPoint x="950" y="430" as="sourcePoint" />
            <mxPoint x="1110" y="430" as="targetPoint" />
            <Array as="points">
              <mxPoint x="780" y="630" />
              <mxPoint x="1450" y="420" />
            </Array>
            <mxPoint y="1" as="offset" />
          </mxGeometry>
        </mxCell>
        <mxCell id="CXB07NSwBX4VoINEI6L7-231" value="点击量展示" style="ellipse;whiteSpace=wrap;html=1;" parent="1" vertex="1">
          <mxGeometry x="635.36" y="3090" width="106" height="30" as="geometry" />
        </mxCell>
        <mxCell id="CXB07NSwBX4VoINEI6L7-232" value="&amp;lt;&amp;lt;extend&amp;gt;&amp;gt;" style="edgeStyle=none;html=1;startArrow=open;endArrow=none;startSize=12;verticalAlign=bottom;dashed=1;labelBackgroundColor=none;rounded=0;entryX=1;entryY=0.5;entryDx=0;entryDy=0;exitX=0;exitY=0.5;exitDx=0;exitDy=0;" parent="1" source="CXB07NSwBX4VoINEI6L7-231" target="CXB07NSwBX4VoINEI6L7-52" edge="1">
          <mxGeometry width="160" relative="1" as="geometry">
            <mxPoint x="570" y="3120" as="sourcePoint" />
            <mxPoint x="730" y="3120" as="targetPoint" />
          </mxGeometry>
        </mxCell>
        <mxCell id="HG2cNUgjfBnOioABaJnI-3" value="反馈异常" style="ellipse;whiteSpace=wrap;html=1;" parent="1" vertex="1">
          <mxGeometry x="422.27000000000004" y="1530" width="87" height="30" as="geometry" />
        </mxCell>
        <mxCell id="VTZD5A776n4PD1zNWtx2-1" value="摄像头通信" style="ellipse;whiteSpace=wrap;html=1;" vertex="1" parent="1">
          <mxGeometry x="1290" y="1250" width="130" height="30" as="geometry" />
        </mxCell>
        <mxCell id="VTZD5A776n4PD1zNWtx2-2" value="&amp;lt;&amp;lt;include&amp;gt;&amp;gt;" style="edgeStyle=none;html=1;endArrow=open;verticalAlign=bottom;dashed=1;labelBackgroundColor=none;rounded=0;entryX=0;entryY=0.5;entryDx=0;entryDy=0;exitX=1;exitY=0.5;exitDx=0;exitDy=0;" edge="1" parent="1" source="j4GF3NeZpC48HNPRZgc2-114" target="VTZD5A776n4PD1zNWtx2-1">
          <mxGeometry width="160" relative="1" as="geometry">
            <mxPoint x="1250" y="1369" as="sourcePoint" />
            <mxPoint x="1395" y="1369" as="targetPoint" />
          </mxGeometry>
        </mxCell>
        <mxCell id="VTZD5A776n4PD1zNWtx2-3" value="OSS照片上传" style="ellipse;whiteSpace=wrap;html=1;fillColor=#FFFF66;" vertex="1" parent="1">
          <mxGeometry x="1290" y="1310" width="130" height="30" as="geometry" />
        </mxCell>
        <mxCell id="VTZD5A776n4PD1zNWtx2-4" value="&amp;lt;&amp;lt;include&amp;gt;&amp;gt;" style="edgeStyle=none;html=1;endArrow=open;verticalAlign=bottom;dashed=1;labelBackgroundColor=none;rounded=0;entryX=0;entryY=0.5;entryDx=0;entryDy=0;exitX=1;exitY=0.5;exitDx=0;exitDy=0;" edge="1" parent="1" source="j4GF3NeZpC48HNPRZgc2-114" target="VTZD5A776n4PD1zNWtx2-3">
          <mxGeometry width="160" relative="1" as="geometry">
            <mxPoint x="1222" y="1300" as="sourcePoint" />
            <mxPoint x="1300" y="1255" as="targetPoint" />
          </mxGeometry>
        </mxCell>
        <mxCell id="VTZD5A776n4PD1zNWtx2-5" value="输入手机号" style="ellipse;whiteSpace=wrap;html=1;fillColor=#97D077;" vertex="1" parent="1">
          <mxGeometry x="492.50999999999993" y="-370" width="87" height="30" as="geometry" />
        </mxCell>
        <mxCell id="VTZD5A776n4PD1zNWtx2-6" value="获取、输入验证码" style="ellipse;whiteSpace=wrap;html=1;fillColor=#97D077;" vertex="1" parent="1">
          <mxGeometry x="469.57" y="-330" width="127.13" height="30" as="geometry" />
        </mxCell>
        <mxCell id="VTZD5A776n4PD1zNWtx2-7" value="&amp;lt;&amp;lt;include&amp;gt;&amp;gt;" style="edgeStyle=none;html=1;endArrow=open;verticalAlign=bottom;dashed=1;labelBackgroundColor=none;rounded=0;exitX=1;exitY=0.5;exitDx=0;exitDy=0;entryX=0;entryY=0.5;entryDx=0;entryDy=0;" edge="1" parent="1" target="VTZD5A776n4PD1zNWtx2-5" source="CXB07NSwBX4VoINEI6L7-190">
          <mxGeometry width="160" relative="1" as="geometry">
            <mxPoint x="414" y="-315" as="sourcePoint" />
            <mxPoint x="577.23" y="-120" as="targetPoint" />
          </mxGeometry>
        </mxCell>
        <mxCell id="VTZD5A776n4PD1zNWtx2-8" value="&amp;lt;&amp;lt;include&amp;gt;&amp;gt;" style="edgeStyle=none;html=1;endArrow=open;verticalAlign=bottom;dashed=1;labelBackgroundColor=none;rounded=0;exitX=1;exitY=0.5;exitDx=0;exitDy=0;entryX=0;entryY=0.5;entryDx=0;entryDy=0;" edge="1" parent="1" target="VTZD5A776n4PD1zNWtx2-6" source="CXB07NSwBX4VoINEI6L7-190">
          <mxGeometry width="160" relative="1" as="geometry">
            <mxPoint x="414" y="-315" as="sourcePoint" />
            <mxPoint x="577.23" y="-120" as="targetPoint" />
          </mxGeometry>
        </mxCell>
        <mxCell id="VTZD5A776n4PD1zNWtx2-10" value="&lt;h1 style=&quot;margin-top: 0px;&quot;&gt;&lt;font style=&quot;font-size: 14px;&quot;&gt;说明：&lt;/font&gt;&lt;/h1&gt;&lt;div&gt;&lt;font size=&quot;3&quot;&gt;&lt;span style=&quot;white-space: pre;&quot;&gt;&#x9;&lt;/span&gt;表示前、后端都已完成，完成对接 / 无需对接&lt;/font&gt;&lt;/div&gt;&lt;div&gt;&lt;font size=&quot;3&quot;&gt;&lt;span style=&quot;white-space: pre;&quot;&gt;&#x9;&lt;/span&gt;&lt;br&gt;&lt;/font&gt;&lt;/div&gt;&lt;div&gt;&lt;font size=&quot;3&quot;&gt;&lt;span style=&quot;white-space: pre;&quot;&gt;&#x9;&lt;/span&gt;表示只有后端已完成&lt;/font&gt;&lt;/div&gt;&lt;div&gt;&lt;font size=&quot;3&quot;&gt;&lt;br&gt;&lt;/font&gt;&lt;/div&gt;&lt;div&gt;&lt;font size=&quot;3&quot;&gt;&lt;span style=&quot;white-space: pre;&quot;&gt;&#x9;&lt;/span&gt;表示只有前端已完成&lt;br&gt;&lt;/font&gt;&lt;/div&gt;&lt;div&gt;&lt;font size=&quot;3&quot;&gt;&lt;br&gt;&lt;/font&gt;&lt;/div&gt;&lt;div&gt;&lt;font size=&quot;3&quot;&gt;&lt;span style=&quot;white-space: pre;&quot;&gt;&#x9;&lt;/span&gt;表示前后端均未完成。&lt;/font&gt;&lt;br&gt;&lt;/div&gt;&lt;div&gt;&lt;font size=&quot;3&quot;&gt;&lt;br&gt;&lt;/font&gt;&lt;/div&gt;&lt;div&gt;&lt;font size=&quot;3&quot;&gt;&lt;span style=&quot;white-space: pre;&quot;&gt;&#x9;&lt;/span&gt;表示注意，存在技术难点 / 业务复杂&lt;br&gt;&lt;/font&gt;&lt;/div&gt;" style="text;html=1;whiteSpace=wrap;overflow=hidden;rounded=0;fillColor=none;movable=0;resizable=0;rotatable=0;deletable=0;editable=0;locked=1;connectable=0;" vertex="1" parent="1">
          <mxGeometry x="-430" y="620" width="450" height="227" as="geometry" />
        </mxCell>
        <mxCell id="VTZD5A776n4PD1zNWtx2-11" value="" style="rounded=0;whiteSpace=wrap;html=1;fillColor=#97D077;movable=0;resizable=0;rotatable=0;deletable=0;editable=0;locked=1;connectable=0;" vertex="1" parent="1">
          <mxGeometry x="-430" y="670" width="27.63" height="20" as="geometry" />
        </mxCell>
        <mxCell id="VTZD5A776n4PD1zNWtx2-12" value="" style="rounded=0;whiteSpace=wrap;html=1;fillColor=#FFFF66;movable=0;resizable=0;rotatable=0;deletable=0;editable=0;locked=1;connectable=0;" vertex="1" parent="1">
          <mxGeometry x="-430" y="711" width="27.63" height="20" as="geometry" />
        </mxCell>
        <mxCell id="VTZD5A776n4PD1zNWtx2-13" value="" style="rounded=0;whiteSpace=wrap;html=1;fillColor=#99FFFF;movable=0;resizable=0;rotatable=0;deletable=0;editable=0;locked=1;connectable=0;" vertex="1" parent="1">
          <mxGeometry x="-430" y="750" width="27.63" height="20" as="geometry" />
        </mxCell>
        <mxCell id="VTZD5A776n4PD1zNWtx2-14" value="" style="rounded=0;whiteSpace=wrap;html=1;fillColor=#FFFFFF;movable=0;resizable=0;rotatable=0;deletable=0;editable=0;locked=1;connectable=0;" vertex="1" parent="1">
          <mxGeometry x="-430" y="788" width="27.63" height="20" as="geometry" />
        </mxCell>
        <mxCell id="VTZD5A776n4PD1zNWtx2-16" value="修改昵称" style="ellipse;whiteSpace=wrap;html=1;fillColor=#FFFF66;" vertex="1" parent="1">
          <mxGeometry x="910" y="619" width="87" height="30" as="geometry" />
        </mxCell>
        <mxCell id="VTZD5A776n4PD1zNWtx2-17" value="修改头像" style="ellipse;whiteSpace=wrap;html=1;fillColor=#FFFF66;" vertex="1" parent="1">
          <mxGeometry x="910" y="659" width="87" height="30" as="geometry" />
        </mxCell>
        <mxCell id="VTZD5A776n4PD1zNWtx2-18" value="修改密码" style="ellipse;whiteSpace=wrap;html=1;fillColor=#FFFF66;" vertex="1" parent="1">
          <mxGeometry x="910" y="705" width="87" height="30" as="geometry" />
        </mxCell>
        <mxCell id="VTZD5A776n4PD1zNWtx2-19" value="&amp;lt;&amp;lt;include&amp;gt;&amp;gt;" style="edgeStyle=none;html=1;endArrow=open;verticalAlign=bottom;dashed=1;labelBackgroundColor=none;rounded=0;exitX=1;exitY=0.5;exitDx=0;exitDy=0;entryX=0;entryY=0.5;entryDx=0;entryDy=0;" edge="1" parent="1" source="CXB07NSwBX4VoINEI6L7-168" target="VTZD5A776n4PD1zNWtx2-16">
          <mxGeometry width="160" relative="1" as="geometry">
            <mxPoint x="614.13" y="639" as="sourcePoint" />
            <mxPoint x="794.13" y="660" as="targetPoint" />
          </mxGeometry>
        </mxCell>
        <mxCell id="VTZD5A776n4PD1zNWtx2-20" value="&amp;lt;&amp;lt;include&amp;gt;&amp;gt;" style="edgeStyle=none;html=1;endArrow=open;verticalAlign=bottom;dashed=1;labelBackgroundColor=none;rounded=0;exitX=1;exitY=0.5;exitDx=0;exitDy=0;entryX=0;entryY=0.5;entryDx=0;entryDy=0;" edge="1" parent="1" source="CXB07NSwBX4VoINEI6L7-168" target="VTZD5A776n4PD1zNWtx2-17">
          <mxGeometry width="160" relative="1" as="geometry">
            <mxPoint x="510" y="674" as="sourcePoint" />
            <mxPoint x="690" y="695" as="targetPoint" />
          </mxGeometry>
        </mxCell>
        <mxCell id="VTZD5A776n4PD1zNWtx2-24" value="&amp;lt;&amp;lt;include&amp;gt;&amp;gt;" style="edgeStyle=none;html=1;endArrow=open;verticalAlign=bottom;dashed=1;labelBackgroundColor=none;rounded=0;exitX=1;exitY=0.5;exitDx=0;exitDy=0;entryX=0;entryY=0.5;entryDx=0;entryDy=0;" edge="1" parent="1" source="CXB07NSwBX4VoINEI6L7-168" target="VTZD5A776n4PD1zNWtx2-18">
          <mxGeometry width="160" relative="1" as="geometry">
            <mxPoint x="767" y="685" as="sourcePoint" />
            <mxPoint x="860" y="685" as="targetPoint" />
          </mxGeometry>
        </mxCell>
        <mxCell id="VTZD5A776n4PD1zNWtx2-25" value="通关攻略帖查询" style="ellipse;whiteSpace=wrap;html=1;fillColor=#FFFF66;" vertex="1" parent="1">
          <mxGeometry x="660.63" y="330" width="108.27" height="30" as="geometry" />
        </mxCell>
        <mxCell id="VTZD5A776n4PD1zNWtx2-26" value="&amp;lt;&amp;lt;include&amp;gt;&amp;gt;" style="edgeStyle=none;html=1;endArrow=open;verticalAlign=bottom;dashed=1;labelBackgroundColor=none;rounded=0;exitX=1;exitY=0.5;exitDx=0;exitDy=0;entryX=0;entryY=0.5;entryDx=0;entryDy=0;" edge="1" parent="1" source="j4GF3NeZpC48HNPRZgc2-29" target="VTZD5A776n4PD1zNWtx2-25">
          <mxGeometry width="160" relative="1" as="geometry">
            <mxPoint x="519" y="320" as="sourcePoint" />
            <mxPoint x="682" y="315" as="targetPoint" />
          </mxGeometry>
        </mxCell>
        <mxCell id="VTZD5A776n4PD1zNWtx2-27" value="" style="rounded=0;whiteSpace=wrap;html=1;fillColor=#FF9999;movable=0;resizable=0;rotatable=0;deletable=0;editable=0;locked=1;connectable=0;" vertex="1" parent="1">
          <mxGeometry x="-430" y="825" width="27.63" height="20" as="geometry" />
        </mxCell>
        <mxCell id="VTZD5A776n4PD1zNWtx2-30" value="获取详细文章" style="ellipse;whiteSpace=wrap;html=1;fillColor=#FFFF66;" vertex="1" parent="1">
          <mxGeometry x="855" y="47.67" width="110" height="30" as="geometry" />
        </mxCell>
        <mxCell id="VTZD5A776n4PD1zNWtx2-31" value="获取文章评论列表" style="ellipse;whiteSpace=wrap;html=1;fillColor=#FFFF66;" vertex="1" parent="1">
          <mxGeometry x="840" y="99.99999999999999" width="150" height="30" as="geometry" />
        </mxCell>
        <mxCell id="VTZD5A776n4PD1zNWtx2-34" value="&amp;lt;&amp;lt;include&amp;gt;&amp;gt;" style="edgeStyle=none;html=1;endArrow=open;verticalAlign=bottom;dashed=1;labelBackgroundColor=none;rounded=0;exitX=1;exitY=0.5;exitDx=0;exitDy=0;entryX=0;entryY=0.5;entryDx=0;entryDy=0;" edge="1" parent="1" source="j4GF3NeZpC48HNPRZgc2-62" target="VTZD5A776n4PD1zNWtx2-30">
          <mxGeometry width="160" relative="1" as="geometry">
            <mxPoint x="771" y="200" as="sourcePoint" />
            <mxPoint x="880" y="165" as="targetPoint" />
          </mxGeometry>
        </mxCell>
        <mxCell id="VTZD5A776n4PD1zNWtx2-35" value="&amp;lt;&amp;lt;include&amp;gt;&amp;gt;" style="edgeStyle=none;html=1;endArrow=open;verticalAlign=bottom;dashed=1;labelBackgroundColor=none;rounded=0;exitX=1;exitY=0.5;exitDx=0;exitDy=0;entryX=0;entryY=0.5;entryDx=0;entryDy=0;" edge="1" parent="1" source="j4GF3NeZpC48HNPRZgc2-62" target="VTZD5A776n4PD1zNWtx2-31">
          <mxGeometry width="160" relative="1" as="geometry">
            <mxPoint x="781" y="210" as="sourcePoint" />
            <mxPoint x="890" y="175" as="targetPoint" />
          </mxGeometry>
        </mxCell>
        <mxCell id="VTZD5A776n4PD1zNWtx2-37" value="获取帖子、评论" style="ellipse;whiteSpace=wrap;html=1;fillColor=#FFFF66;" vertex="1" parent="1">
          <mxGeometry x="676.26" y="770" width="101" height="31" as="geometry" />
        </mxCell>
        <mxCell id="VTZD5A776n4PD1zNWtx2-38" value="管理个人帖子、评论" style="ellipse;whiteSpace=wrap;html=1;fillColor=#FFFFFF;" vertex="1" parent="1">
          <mxGeometry x="394.76" y="814.5" width="138.49" height="31" as="geometry" />
        </mxCell>
        <mxCell id="VTZD5A776n4PD1zNWtx2-40" style="edgeStyle=orthogonalEdgeStyle;rounded=0;orthogonalLoop=1;jettySize=auto;html=1;exitX=0.5;exitY=1;exitDx=0;exitDy=0;" edge="1" parent="1" source="VTZD5A776n4PD1zNWtx2-37" target="VTZD5A776n4PD1zNWtx2-37">
          <mxGeometry relative="1" as="geometry" />
        </mxCell>
        <mxCell id="VTZD5A776n4PD1zNWtx2-41" value="&amp;lt;&amp;lt;include&amp;gt;&amp;gt;" style="edgeStyle=none;html=1;endArrow=open;verticalAlign=bottom;dashed=1;labelBackgroundColor=none;rounded=0;exitX=1;exitY=0.5;exitDx=0;exitDy=0;entryX=0;entryY=0.5;entryDx=0;entryDy=0;" edge="1" parent="1" source="VTZD5A776n4PD1zNWtx2-38" target="VTZD5A776n4PD1zNWtx2-37">
          <mxGeometry width="160" relative="1" as="geometry">
            <mxPoint x="411.15" y="788" as="sourcePoint" />
            <mxPoint x="576.15" y="710" as="targetPoint" />
          </mxGeometry>
        </mxCell>
        <mxCell id="VTZD5A776n4PD1zNWtx2-42" value="&amp;lt;&amp;lt;include&amp;gt;&amp;gt;" style="edgeStyle=none;html=1;endArrow=open;verticalAlign=bottom;dashed=1;labelBackgroundColor=none;rounded=0;exitX=1;exitY=0.5;exitDx=0;exitDy=0;entryX=0;entryY=0.5;entryDx=0;entryDy=0;" edge="1" parent="1" source="VTZD5A776n4PD1zNWtx2-38" target="CXB07NSwBX4VoINEI6L7-145">
          <mxGeometry width="160" relative="1" as="geometry">
            <mxPoint x="436" y="824" as="sourcePoint" />
            <mxPoint x="493" y="794" as="targetPoint" />
          </mxGeometry>
        </mxCell>
      </root>
    </mxGraphModel>
  </diagram>
</mxfile>
